# This file uses centimeters as units for non-parametric coordinates.

mtllib wall.mtl
g default
v -15.000000 -12.500000 9.600725
v 15.000000 -12.500000 9.600725
v -15.000000 -4.166667 9.558945
v 15.000000 -4.166667 9.558945
v -15.000000 4.166666 9.558945
v 15.000000 4.166666 9.558945
v -15.000000 12.500000 9.600725
v 15.000000 12.500000 9.600725
v -15.000000 12.500000 8.600725
v 15.000000 12.500000 8.600725
v -15.000000 4.166667 8.637672
v 15.000000 4.166667 8.637672
v -15.000000 -4.166666 8.637672
v 15.000000 -4.166666 8.637672
v -15.000000 -12.500000 8.600725
v 15.000000 -12.500000 8.600725
v 15.000000 -4.214266 9.600725
v -15.000000 -4.214266 9.600725
v -15.000000 -4.214265 8.600725
v 15.000000 -4.214265 8.600725
v 15.000000 -4.116887 9.600725
v -15.000000 -4.116887 9.600725
v -15.000000 -4.116886 8.600725
v 15.000000 -4.116886 8.600725
v 15.000000 4.087276 9.600725
v -15.000000 4.087276 9.600725
v -15.000000 4.087277 8.600725
v 15.000000 4.087277 8.600725
v 15.000000 4.221661 9.600725
v -15.000000 4.221661 9.600725
v -15.000000 4.221663 8.600725
v 15.000000 4.221663 8.600725
v 15.000000 4.234466 9.600725
v -15.000000 4.234466 9.600725
v -15.000000 4.234467 8.600725
v 15.000000 4.234467 8.600725
v 15.000000 4.063025 9.600725
v -15.000000 4.063025 9.600725
v -15.000000 4.063026 8.600725
v 15.000000 4.063026 8.600725
v 15.000000 -4.095257 9.600725
v -15.000000 -4.095257 9.600725
v -15.000000 -4.095256 8.600725
v 15.000000 -4.095256 8.600725
v 15.000000 -4.236624 9.600725
v -15.000000 -4.236624 9.600725
v -15.000000 -4.236623 8.600725
v 15.000000 -4.236623 8.600725
v 15.000000 4.158140 9.563432
v -15.000000 4.158140 9.563432
v -15.000000 4.158141 8.633705
v 15.000000 4.158141 8.633705
v 15.000000 -4.174698 9.565995
v -15.000000 -4.174698 9.565995
v -15.000000 -4.174697 8.631438
v 15.000000 -4.174697 8.631438
v 15.000000 12.458410 9.600725
v -15.000000 12.458410 9.600725
v -15.000000 12.458410 8.600725
v 15.000000 12.458410 8.600725
v 15.000000 -12.481290 9.600725
v -15.000000 -12.481290 9.600725
v -15.000000 -12.481290 8.600725
v 15.000000 -12.481290 8.600725
v 14.977901 -12.500000 9.600725
v 14.977901 -12.481290 9.600725
v 14.977901 -4.236624 9.600725
v 14.977901 -4.214266 9.600725
v 14.977901 -4.174698 9.565995
v 14.977901 -4.166667 9.558945
v 14.977901 -4.116887 9.600725
v 14.977901 -4.095257 9.600725
v 14.977901 4.063025 9.600725
v 14.977901 4.087276 9.600725
v 14.977901 4.158140 9.563432
v 14.977901 4.166666 9.558945
v 14.977901 4.221661 9.600725
v 14.977901 4.234466 9.600725
v 14.977901 12.458410 9.600725
v 14.977901 12.500000 9.600725
v 14.977901 12.500000 8.600725
v 14.977901 12.458410 8.600725
v 14.977901 4.234467 8.600725
v 14.977901 4.221663 8.600725
v 14.977901 4.166667 8.637672
v 14.977901 4.158141 8.633705
v 14.977901 4.087277 8.600725
v 14.977901 4.063026 8.600725
v 14.977901 -4.095256 8.600725
v 14.977901 -4.116886 8.600725
v 14.977901 -4.166666 8.637672
v 14.977901 -4.174697 8.631438
v 14.977901 -4.214265 8.600725
v 14.977901 -4.236623 8.600725
v 14.977901 -12.481290 8.600725
v 14.977901 -12.500000 8.600725
v -14.986150 -12.500000 9.600725
v -14.986150 -12.481290 9.600725
v -14.986150 -4.236624 9.600725
v -14.986150 -4.214266 9.600725
v -14.986150 -4.174698 9.565995
v -14.986150 -4.166667 9.558945
v -14.986150 -4.116887 9.600725
v -14.986150 -4.095257 9.600725
v -14.986150 4.063025 9.600725
v -14.986150 4.087276 9.600725
v -14.986150 4.158140 9.563432
v -14.986150 4.166666 9.558945
v -14.986150 4.221661 9.600725
v -14.986150 4.234466 9.600725
v -14.986150 12.458410 9.600725
v -14.986150 12.500000 9.600725
v -14.986150 12.500000 8.600725
v -14.986150 12.458410 8.600725
v -14.986150 4.234467 8.600725
v -14.986150 4.221663 8.600725
v -14.986150 4.166667 8.637672
v -14.986150 4.158141 8.633705
v -14.986150 4.087277 8.600725
v -14.986150 4.063026 8.600725
v -14.986150 -4.095256 8.600725
v -14.986150 -4.116886 8.600725
v -14.986150 -4.166666 8.637672
v -14.986150 -4.174697 8.631438
v -14.986150 -4.214265 8.600725
v -14.986150 -4.236623 8.600725
v -14.986150 -12.481290 8.600725
v -14.986150 -12.500000 8.600725
vt 0.375000 0.000000
vt 0.625000 0.000000
vt 0.375000 0.083333
vt 0.625000 0.083333
vt 0.375000 0.166667
vt 0.625000 0.166667
vt 0.375000 0.250000
vt 0.625000 0.250000
vt 0.375000 0.500000
vt 0.625000 0.500000
vt 0.375000 0.583333
vt 0.625000 0.583333
vt 0.375000 0.666667
vt 0.625000 0.666667
vt 0.375000 0.750000
vt 0.625000 0.750000
vt 0.375000 1.000000
vt 0.625000 1.000000
vt 0.875000 0.000000
vt 0.875000 0.083333
vt 0.875000 0.166667
vt 0.875000 0.250000
vt 0.125000 0.000000
vt 0.125000 0.083333
vt 0.125000 0.166667
vt 0.125000 0.250000
vt 0.625000 0.082857
vt 0.375000 0.082857
vt 0.125000 0.082857
vt 0.375000 0.667143
vt 0.625000 0.667143
vt 0.875000 0.082857
vt 0.625000 0.083831
vt 0.375000 0.083831
vt 0.125000 0.083831
vt 0.375000 0.666169
vt 0.625000 0.666169
vt 0.875000 0.083831
vt 0.625000 0.165873
vt 0.375000 0.165873
vt 0.125000 0.165873
vt 0.375000 0.584127
vt 0.625000 0.584127
vt 0.875000 0.165873
vt 0.625000 0.167503
vt 0.375000 0.167503
vt 0.125000 0.167503
vt 0.375000 0.582497
vt 0.625000 0.582497
vt 0.875000 0.167503
vt 0.625000 0.167631
vt 0.375000 0.167631
vt 0.125000 0.167631
vt 0.375000 0.582369
vt 0.625000 0.582369
vt 0.875000 0.167631
vt 0.625000 0.165630
vt 0.375000 0.165630
vt 0.125000 0.165630
vt 0.375000 0.584370
vt 0.625000 0.584370
vt 0.875000 0.165630
vt 0.625000 0.084047
vt 0.375000 0.084047
vt 0.125000 0.084047
vt 0.375000 0.665953
vt 0.625000 0.665953
vt 0.875000 0.084047
vt 0.625000 0.082634
vt 0.375000 0.082634
vt 0.125000 0.082634
vt 0.375000 0.667366
vt 0.625000 0.667366
vt 0.875000 0.082634
vt 0.625000 0.166581
vt 0.375000 0.166581
vt 0.125000 0.166581
vt 0.375000 0.583419
vt 0.625000 0.583419
vt 0.875000 0.166581
vt 0.625000 0.083253
vt 0.375000 0.083253
vt 0.125000 0.083253
vt 0.375000 0.666747
vt 0.625000 0.666747
vt 0.875000 0.083253
vt 0.625000 0.249586
vt 0.375000 0.249586
vt 0.125000 0.249586
vt 0.375000 0.500414
vt 0.625000 0.500414
vt 0.875000 0.249586
vt 0.625000 0.000187
vt 0.375000 0.000187
vt 0.125000 0.000187
vt 0.375000 0.749813
vt 0.625000 0.749813
vt 0.875000 0.000187
vt 0.624816 0.000000
vt 0.624816 1.000000
vt 0.624816 0.000187
vt 0.624816 0.082634
vt 0.624816 0.082857
vt 0.624816 0.083253
vt 0.624816 0.083333
vt 0.624816 0.083831
vt 0.624816 0.084047
vt 0.624816 0.165630
vt 0.624816 0.165873
vt 0.624816 0.166581
vt 0.624816 0.166667
vt 0.624816 0.167503
vt 0.624816 0.167631
vt 0.624816 0.249586
vt 0.624816 0.250000
vt 0.624816 0.500000
vt 0.624816 0.500414
vt 0.624816 0.582369
vt 0.624816 0.582497
vt 0.624816 0.583333
vt 0.624816 0.583419
vt 0.624816 0.584127
vt 0.624816 0.584370
vt 0.624816 0.665953
vt 0.624816 0.666169
vt 0.624816 0.666667
vt 0.624816 0.666747
vt 0.624816 0.667143
vt 0.624816 0.667366
vt 0.624816 0.749813
vt 0.624816 0.750000
vt 0.375115 0.000000
vt 0.375115 1.000000
vt 0.375115 0.000187
vt 0.375115 0.082634
vt 0.375115 0.082857
vt 0.375115 0.083253
vt 0.375115 0.083333
vt 0.375115 0.083831
vt 0.375115 0.084047
vt 0.375115 0.165630
vt 0.375115 0.165873
vt 0.375115 0.166581
vt 0.375115 0.166667
vt 0.375115 0.167503
vt 0.375115 0.167631
vt 0.375115 0.249586
vt 0.375115 0.250000
vt 0.375115 0.500000
vt 0.375115 0.500414
vt 0.375115 0.582369
vt 0.375115 0.582497
vt 0.375115 0.583333
vt 0.375115 0.583419
vt 0.375115 0.584127
vt 0.375115 0.584370
vt 0.375115 0.665953
vt 0.375115 0.666169
vt 0.375115 0.666667
vt 0.375115 0.666747
vt 0.375115 0.667143
vt 0.375115 0.667366
vt 0.375115 0.749813
vt 0.375115 0.750000
vn 0.000000 0.000000 1.000000
vn 0.000000 0.000000 1.000000
vn 0.000000 0.000000 1.000000
vn 0.000000 0.000000 1.000000
vn 0.000000 -0.514954 0.857218
vn 0.000000 -0.514969 0.857209
vn 0.000000 -0.504989 0.863126
vn 0.000000 -0.504979 0.863131
vn 0.000000 -0.506277 0.862371
vn 0.000000 -0.506291 0.862363
vn 0.000000 -0.524616 0.851339
vn 0.000000 -0.524605 0.851346
vn 0.000000 1.000000 0.000000
vn 0.000000 1.000000 0.000000
vn 0.000000 1.000000 0.000000
vn 0.000000 1.000000 0.000000
vn 0.000000 -0.478534 -0.878069
vn 0.000000 -0.478507 -0.878084
vn 0.000000 -0.460784 -0.887512
vn 0.000000 -0.460815 -0.887496
vn 0.000000 -0.459559 -0.888147
vn 0.000000 -0.459533 -0.888161
vn 0.000000 -0.469166 -0.883110
vn 0.000000 -0.469199 -0.883092
vn 0.000000 0.000000 -1.000000
vn 0.000000 0.000000 -1.000000
vn 0.000000 0.000000 -1.000000
vn 0.000000 0.000000 -1.000000
vn 0.000000 -1.000000 0.000000
vn 0.000000 -1.000000 0.000000
vn 0.000000 -1.000000 0.000000
vn 0.000000 -1.000000 0.000000
vn 1.000000 0.000000 0.000000
vn 1.000000 0.000000 0.000000
vn 1.000000 0.000000 0.000000
vn 1.000000 0.000000 0.000000
vn 1.000000 -0.000004 0.000000
vn 1.000000 -0.000004 0.000000
vn 1.000000 -0.000002 0.000000
vn 1.000000 -0.000002 0.000000
vn 1.000000 0.000015 0.000000
vn 1.000000 0.000015 0.000000
vn 1.000000 -0.000002 0.000000
vn 1.000000 -0.000002 0.000000
vn -1.000000 0.000000 0.000000
vn -1.000000 0.000000 0.000000
vn -1.000000 0.000000 0.000000
vn -1.000000 0.000000 0.000000
vn -1.000000 -0.000010 0.000000
vn -1.000000 -0.000010 0.000000
vn -1.000000 -0.000005 0.000000
vn -1.000000 -0.000006 0.000000
vn -1.000000 0.000000 0.000000
vn -1.000000 0.000000 0.000000
vn -1.000000 -0.000006 0.000000
vn -1.000000 -0.000006 0.000000
vn 0.000000 0.489152 0.872199
vn 0.000000 0.489160 0.872194
vn 0.000000 0.659669 0.751557
vn 0.000000 0.659663 0.751561
vn -1.000000 0.000007 0.000000
vn -1.000000 0.000007 0.000000
vn -1.000000 0.000013 0.000000
vn -1.000000 0.000013 0.000000
vn 0.000000 0.613182 -0.789941
vn 0.000000 0.613171 -0.789951
vn 0.000000 0.444323 -0.895867
vn 0.000000 0.444335 -0.895861
vn 1.000000 0.000015 0.000000
vn 1.000000 0.000016 0.000000
vn 1.000000 0.000028 0.000000
vn 1.000000 0.000029 0.000000
vn 0.000000 0.000000 1.000000
vn 0.000000 0.000000 1.000000
vn -1.000000 0.000000 0.000000
vn -1.000000 0.000000 0.000000
vn 0.000000 0.000000 -1.000000
vn 0.000000 0.000000 -1.000000
vn 1.000000 0.000000 0.000000
vn 1.000000 0.000000 0.000000
vn 0.000000 0.365004 0.931006
vn 0.000000 0.365029 0.930996
vn 0.000000 0.465709 0.884938
vn 0.000000 0.465684 0.884951
vn -1.000000 -0.000000 0.000000
vn -1.000000 -0.000000 0.000000
vn -1.000000 0.000003 0.000000
vn -1.000000 0.000004 0.000000
vn 0.000000 0.421942 -0.906623
vn 0.000000 0.421936 -0.906626
vn 0.000000 0.327600 -0.944817
vn 0.000000 0.327604 -0.944815
vn 1.000000 0.000000 0.000000
vn 1.000000 0.000000 0.000000
vn 1.000000 0.000009 0.000000
vn 1.000000 0.000008 0.000000
vn 0.000000 0.000000 1.000000
vn 0.000000 0.000000 1.000000
vn -1.000000 0.000000 0.000000
vn -1.000000 0.000000 0.000000
vn 0.000000 0.000000 -1.000000
vn 0.000000 0.000000 -1.000000
vn 1.000000 0.000000 0.000000
vn 1.000000 0.000000 0.000000
vn 0.000000 0.000000 1.000000
vn 0.000000 0.000000 1.000000
vn -1.000000 0.000000 0.000000
vn -1.000000 0.000000 0.000000
vn 0.000000 0.000000 -1.000000
vn 0.000000 0.000000 -1.000000
vn 1.000000 0.000000 0.000000
vn 1.000000 0.000000 0.000000
vn 0.000000 0.000000 1.000000
vn 0.000000 0.000000 1.000000
vn -1.000000 0.000000 0.000000
vn -1.000000 0.000000 0.000000
vn 0.000000 0.000000 -1.000000
vn 0.000000 0.000000 -1.000000
vn 1.000000 0.000000 0.000000
vn 1.000000 0.000000 0.000000
vn 0.000000 0.000000 1.000000
vn 0.000000 0.000000 1.000000
vn -1.000000 0.000000 0.000000
vn -1.000000 0.000000 0.000000
vn 0.000000 0.000000 -1.000000
vn 0.000000 0.000000 -1.000000
vn 1.000000 0.000000 0.000000
vn 1.000000 0.000000 0.000000
vn 0.000000 0.000000 1.000000
vn 0.000000 0.000000 1.000000
vn -1.000000 0.000000 0.000000
vn -1.000000 0.000000 0.000000
vn 0.000000 0.000000 -1.000000
vn 0.000000 0.000000 -1.000000
vn 1.000000 0.000000 0.000000
vn 1.000000 0.000000 0.000000
vn 0.000000 0.000000 1.000000
vn 0.000000 0.000000 1.000000
vn 0.000000 0.000000 1.000000
vn 0.000000 0.000000 1.000000
vn 0.000000 0.000000 1.000000
vn 0.000000 0.000000 1.000000
vn 0.000000 0.489160 0.872194
vn 0.000000 0.489152 0.872199
vn 0.000000 0.659669 0.751557
vn 0.000000 0.659663 0.751562
vn 0.000000 -0.514969 0.857209
vn 0.000000 -0.514972 0.857207
vn 0.000000 -0.504989 0.863126
vn 0.000000 -0.504992 0.863124
vn 0.000000 0.000000 1.000000
vn 0.000000 0.000000 1.000000
vn 0.000000 0.000000 1.000000
vn 0.000000 0.000000 1.000000
vn 0.000000 0.365029 0.930996
vn 0.000000 0.365020 0.931000
vn 0.000000 0.465709 0.884938
vn 0.000000 0.465699 0.884943
vn 0.000000 -0.506291 0.862363
vn 0.000000 -0.506293 0.862362
vn 0.000000 -0.524616 0.851339
vn 0.000000 -0.524617 0.851338
vn 0.000000 0.000000 1.000000
vn 0.000000 0.000000 1.000000
vn 0.000000 0.000000 1.000000
vn 0.000000 0.000000 1.000000
vn 0.000000 0.000000 1.000000
vn 0.000000 0.000000 1.000000
vn 0.000000 1.000000 0.000000
vn 0.000000 1.000000 0.000000
vn 0.000000 1.000000 0.000000
vn 0.000000 1.000000 0.000000
vn 0.000000 0.000000 -1.000000
vn 0.000000 0.000000 -1.000000
vn 0.000000 0.000000 -1.000000
vn 0.000000 0.000000 -1.000000
vn 0.000000 0.000000 -1.000000
vn 0.000000 0.000000 -1.000000
vn 0.000000 -0.478507 -0.878084
vn 0.000000 -0.478527 -0.878073
vn 0.000000 -0.460784 -0.887512
vn 0.000000 -0.460805 -0.887501
vn 0.000000 0.421936 -0.906626
vn 0.000000 0.421931 -0.906628
vn 0.000000 0.327600 -0.944817
vn 0.000000 0.327595 -0.944818
vn 0.000000 0.000000 -1.000000
vn 0.000000 0.000000 -1.000000
vn 0.000000 0.000000 -1.000000
vn 0.000000 0.000000 -1.000000
vn 0.000000 -0.459533 -0.888161
vn 0.000000 -0.459553 -0.888151
vn 0.000000 -0.469166 -0.883110
vn 0.000000 -0.469192 -0.883096
vn 0.000000 0.613171 -0.789950
vn 0.000000 0.613171 -0.789950
vn 0.000000 0.444323 -0.895867
vn 0.000000 0.444324 -0.895866
vn 0.000000 0.000000 -1.000000
vn 0.000000 0.000000 -1.000000
vn 0.000000 0.000000 -1.000000
vn 0.000000 0.000000 -1.000000
vn 0.000000 0.000000 -1.000000
vn 0.000000 0.000000 -1.000000
vn 0.000000 -1.000000 0.000000
vn 0.000000 -1.000000 0.000000
vn 0.000000 -1.000000 0.000000
vn 0.000000 -1.000000 0.000000
s 1
g pCube2
usemtl initialShadingGroup
f 1/1/1 97/132/2 98/134/3 62/94/4
f 3/3/5 102/138/6 103/139/7 22/34/8
f 5/5/9 108/144/10 109/145/11 30/46/12
s 4
f 7/7/13 112/148/14 113/149/15 9/9/16
s 5
f 31/48/17 116/152/18 117/153/19 11/11/20
f 23/36/21 122/158/22 123/159/23 13/13/24
f 63/96/25 127/163/26 128/164/27 15/15/28
s 8
f 15/15/29 128/164/30 97/133/31 1/17/32
s 9
f 2/2/33 16/19/34 64/98/35 61/93/36
f 4/4/37 14/20/38 24/38/39 21/33/40
f 6/6/41 12/21/42 32/50/43 29/45/44
s 12
f 15/23/45 1/1/46 62/94/47 63/95/48
f 13/24/49 3/3/50 22/34/51 23/35/52
f 11/25/53 5/5/54 30/46/55 31/47/56
s 1
f 18/28/57 100/136/58 101/137/59 54/82/60
s 12
f 19/29/61 18/28/62 54/82/63 55/83/64
s 5
f 55/84/65 124/160/66 125/161/67 19/30/68
s 9
f 17/27/69 20/32/70 56/86/71 53/81/72
s 1
f 22/34/8 103/139/7 104/140/73 42/64/74
s 12
f 23/35/52 22/34/51 42/64/75 43/65/76
s 5
f 43/66/77 121/157/78 122/158/22 23/36/21
s 9
f 21/33/40 24/38/39 44/68/79 41/63/80
s 1
f 26/40/81 106/142/82 107/143/83 50/76/84
s 12
f 27/41/85 26/40/86 50/76/87 51/77/88
s 5
f 51/78/89 118/154/90 119/155/91 27/42/92
s 9
f 25/39/93 28/44/94 52/80/95 49/75/96
s 1
f 30/46/12 109/145/11 110/146/97 34/52/98
s 12
f 31/47/56 30/46/55 34/52/99 35/53/100
s 5
f 35/54/101 115/151/102 116/152/18 31/48/17
s 9
f 29/45/44 32/50/43 36/56/103 33/51/104
s 1
f 34/52/98 110/146/97 111/147/105 58/88/106
s 12
f 35/53/100 34/52/99 58/88/107 59/89/108
s 5
f 59/90/109 114/150/110 115/151/102 35/54/101
s 9
f 33/51/104 36/56/103 60/92/111 57/87/112
s 1
f 38/58/113 105/141/114 106/142/82 26/40/81
s 12
f 39/59/115 38/58/116 26/40/86 27/41/85
s 5
f 27/42/92 119/155/91 120/156/117 39/60/118
s 9
f 37/57/119 40/62/120 28/44/94 25/39/93
s 1
f 42/64/74 104/140/73 105/141/114 38/58/113
s 12
f 43/65/76 42/64/75 38/58/116 39/59/115
s 5
f 39/60/118 120/156/117 121/157/78 43/66/77
s 9
f 41/63/80 44/68/79 40/62/120 37/57/119
s 1
f 46/70/121 99/135/122 100/136/58 18/28/57
s 12
f 47/71/123 46/70/124 18/28/62 19/29/61
s 5
f 19/30/68 125/161/67 126/162/125 47/72/126
s 9
f 45/69/127 48/74/128 20/32/70 17/27/69
s 1
f 50/76/84 107/143/83 108/144/10 5/5/9
s 12
f 51/77/88 50/76/87 5/5/54 11/25/53
s 5
f 11/11/20 117/153/19 118/154/90 51/78/89
s 9
f 49/75/96 52/80/95 12/21/42 6/6/41
s 1
f 54/82/60 101/137/59 102/138/6 3/3/5
s 12
f 55/83/64 54/82/63 3/3/50 13/24/49
s 5
f 13/13/24 123/159/23 124/160/66 55/84/65
s 9
f 53/81/72 56/86/71 14/20/38 4/4/37
s 1
f 58/88/106 111/147/105 112/148/129 7/7/130
s 12
f 59/89/108 58/88/107 7/7/131 9/26/132
s 5
f 9/9/133 113/149/134 114/150/110 59/90/109
s 9
f 57/87/112 60/92/111 10/22/135 8/8/136
s 1
f 62/94/4 98/134/3 99/135/122 46/70/121
s 12
f 63/95/48 62/94/47 46/70/124 47/71/123
s 5
f 47/72/126 126/162/125 127/163/26 63/96/25
s 9
f 61/93/36 64/98/35 48/74/128 45/69/127
s 1
f 65/99/137 2/2/138 61/93/139 66/101/140
f 67/102/141 66/101/140 61/93/139 45/69/142
f 68/103/143 67/102/141 45/69/142 17/27/144
f 69/104/145 68/103/143 17/27/144 53/81/146
f 70/105/147 69/104/145 53/81/146 4/4/148
f 71/106/149 70/105/147 4/4/148 21/33/150
f 72/107/151 71/106/149 21/33/150 41/63/152
f 73/108/153 72/107/151 41/63/152 37/57/154
f 74/109/155 73/108/153 37/57/154 25/39/156
f 75/110/157 74/109/155 25/39/156 49/75/158
f 76/111/159 75/110/157 49/75/158 6/6/160
f 77/112/161 76/111/159 6/6/160 29/45/162
f 78/113/163 77/112/161 29/45/162 33/51/164
f 79/114/165 78/113/163 33/51/164 57/87/166
f 80/115/167 79/114/165 57/87/166 8/8/168
s 4
f 81/116/169 80/115/170 8/8/171 10/10/172
s 5
f 82/117/173 81/116/174 10/10/175 60/91/176
f 83/118/177 82/117/173 60/91/176 36/55/178
f 84/119/179 83/118/177 36/55/178 32/49/180
f 85/120/181 84/119/179 32/49/180 12/12/182
f 86/121/183 85/120/181 12/12/182 52/79/184
f 87/122/185 86/121/183 52/79/184 28/43/186
f 88/123/187 87/122/185 28/43/186 40/61/188
f 89/124/189 88/123/187 40/61/188 44/67/190
f 90/125/191 89/124/189 44/67/190 24/37/192
f 91/126/193 90/125/191 24/37/192 14/14/194
f 92/127/195 91/126/193 14/14/194 56/85/196
f 93/128/197 92/127/195 56/85/196 20/31/198
f 94/129/199 93/128/197 20/31/198 48/73/200
f 95/130/201 94/129/199 48/73/200 64/97/202
f 96/131/203 95/130/201 64/97/202 16/16/204
s 8
f 65/100/205 96/131/206 16/16/207 2/18/208
s 1
f 97/132/2 65/99/137 66/101/140 98/134/3
f 99/135/122 98/134/3 66/101/140 67/102/141
f 100/136/58 99/135/122 67/102/141 68/103/143
f 101/137/59 100/136/58 68/103/143 69/104/145
f 102/138/6 101/137/59 69/104/145 70/105/147
f 103/139/7 102/138/6 70/105/147 71/106/149
f 104/140/73 103/139/7 71/106/149 72/107/151
f 105/141/114 104/140/73 72/107/151 73/108/153
f 106/142/82 105/141/114 73/108/153 74/109/155
f 107/143/83 106/142/82 74/109/155 75/110/157
f 108/144/10 107/143/83 75/110/157 76/111/159
f 109/145/11 108/144/10 76/111/159 77/112/161
f 110/146/97 109/145/11 77/112/161 78/113/163
f 111/147/105 110/146/97 78/113/163 79/114/165
f 112/148/129 111/147/105 79/114/165 80/115/167
s 4
f 113/149/15 112/148/14 80/115/170 81/116/169
s 5
f 114/150/110 113/149/134 81/116/174 82/117/173
f 115/151/102 114/150/110 82/117/173 83/118/177
f 116/152/18 115/151/102 83/118/177 84/119/179
f 117/153/19 116/152/18 84/119/179 85/120/181
f 118/154/90 117/153/19 85/120/181 86/121/183
f 119/155/91 118/154/90 86/121/183 87/122/185
f 120/156/117 119/155/91 87/122/185 88/123/187
f 121/157/78 120/156/117 88/123/187 89/124/189
f 122/158/22 121/157/78 89/124/189 90/125/191
f 123/159/23 122/158/22 90/125/191 91/126/193
f 124/160/66 123/159/23 91/126/193 92/127/195
f 125/161/67 124/160/66 92/127/195 93/128/197
f 126/162/125 125/161/67 93/128/197 94/129/199
f 127/163/26 126/162/125 94/129/199 95/130/201
f 128/164/27 127/163/26 95/130/201 96/131/203
s 8
f 97/133/31 128/164/30 96/131/206 65/100/205
