# This file uses centimeters as units for non-parametric coordinates.

mtllib wall_high.mtl
g default
v -9.956070 -17.456070 0.350015
v -9.850015 -17.500000 0.350015
v -9.850015 -17.456070 0.456070
v -9.850015 -17.350016 0.500000
v -9.956070 -17.350016 0.456070
v -10.000000 -17.350016 0.350015
v 9.956070 -17.456070 0.350015
v 10.000000 -17.350016 0.350015
v 9.956070 -17.350016 0.456070
v 9.850015 -17.350016 0.500000
v 9.850015 -17.456070 0.456070
v 9.850015 -17.500000 0.350015
v -9.956070 17.456070 0.350015
v -10.000000 17.350016 0.350015
v -9.956070 17.350016 0.456070
v -9.850015 17.350016 0.500000
v -9.850015 17.456070 0.456070
v -9.850015 17.500000 0.350015
v 9.956070 17.456070 0.350015
v 9.850015 17.500000 0.350015
v 9.850015 17.456070 0.456070
v 9.850015 17.350016 0.500000
v 9.956070 17.350016 0.456070
v 10.000000 17.350016 0.350015
v -9.956070 17.350016 -0.456070
v -10.000000 17.350016 -0.350015
v -9.956070 17.456070 -0.350015
v -9.850015 17.500000 -0.350015
v -9.850015 17.456070 -0.456070
v -9.850015 17.350016 -0.500000
v 9.956070 17.350016 -0.456070
v 9.850015 17.350016 -0.500000
v 9.850015 17.456070 -0.456070
v 9.850015 17.500000 -0.350015
v 9.956070 17.456070 -0.350015
v 10.000000 17.350016 -0.350015
v -9.956070 -17.456070 -0.350015
v -10.000000 -17.350016 -0.350015
v -9.956070 -17.350016 -0.456070
v -9.850015 -17.350016 -0.500000
v -9.850015 -17.456070 -0.456070
v -9.850015 -17.500000 -0.350015
v 9.956070 -17.456070 -0.350015
v 9.850015 -17.500000 -0.350015
v 9.850015 -17.456070 -0.456070
v 9.850015 -17.350016 -0.500000
v 9.956070 -17.350016 -0.456070
v 10.000000 -17.350016 -0.350015
v -9.936579 -17.436579 0.436579
v 9.936579 -17.436579 0.436579
v -9.936579 17.436579 0.436579
v 9.936579 17.436579 0.436579
v -9.936579 17.436579 -0.436579
v 9.936579 17.436579 -0.436579
v -9.936579 -17.436579 -0.436579
v 9.936579 -17.436579 -0.436579
vt 0.376875 0.962504
vt 0.376875 0.001071
vt 0.623125 0.962504
vt 0.662500 0.001071
vt 0.376875 0.248929
vt 0.623125 0.248929
vt 0.662496 0.248929
vt 0.162500 0.001071
vt 0.376875 0.462504
vt 0.623125 0.462504
vt 0.837504 0.248929
vt 0.837500 0.001071
vt 0.623125 0.787496
vt 0.376875 0.748929
vt 0.623125 0.748929
vt 0.623125 0.001071
vt 0.376875 0.287496
vt 0.623125 0.287496
vt 0.376875 0.501071
vt 0.623125 0.501071
vt 0.376875 0.787496
vt 0.337500 0.001071
vt 0.337504 0.248929
vt 0.162496 0.248929
vt 0.375000 0.974242
vt 0.349242 -0.000000
vt 0.376142 -0.000000
vt 0.376142 1.000000
vt 0.357255 0.001070
vt 0.650758 -0.000000
vt 0.625000 0.974242
vt 0.642745 0.001070
vt 0.623858 1.000000
vt 0.623858 -0.000000
vt 0.349242 0.250000
vt 0.375000 0.275758
vt 0.357257 0.248930
vt 0.376871 0.268091
vt 0.625000 0.275758
vt 0.650758 0.250000
vt 0.623129 0.268091
vt 0.642743 0.248930
vt 0.125000 0.249349
vt 0.375000 0.500651
vt 0.375000 0.474242
vt 0.150758 0.250000
vt 0.376871 0.481909
vt 0.625000 0.500651
vt 0.875000 0.249349
vt 0.623129 0.481909
vt 0.849242 0.250000
vt 0.625000 0.474242
vt 0.150758 -0.000000
vt 0.375000 0.775758
vt 0.375000 0.749349
vt 0.125000 0.000651
vt 0.376871 0.768091
vt 0.625000 0.775758
vt 0.849242 -0.000000
vt 0.623129 0.768091
vt 0.875000 0.000651
vt 0.625000 0.749349
vt 0.375000 1.000000
vt 0.375000 0.000000
vt 0.625000 0.000000
vt 0.625000 1.000000
vt 0.375000 0.250000
vt 0.625000 0.250000
vt 0.125000 0.250000
vt 0.375000 0.500000
vt 0.625000 0.500000
vt 0.875000 0.250000
vt 0.125000 0.000000
vt 0.375000 0.750000
vt 0.625000 0.750000
vt 0.875000 0.000000
vn -0.002114 -0.998521 0.054326
vn -0.378569 -0.924918 0.034809
vn -0.378569 -0.924918 -0.034809
vn -0.002114 -0.998521 -0.054326
vn -0.924917 -0.378574 0.034808
vn -0.998520 -0.001203 0.054366
vn -0.998520 -0.001203 -0.054366
vn -0.924917 -0.378574 -0.034808
vn -0.002216 -0.001260 0.999997
vn -0.001371 -0.382530 0.923942
vn 0.001371 -0.382530 0.923942
vn 0.002216 -0.001260 0.999997
vn -0.001371 -0.923942 0.382531
vn 0.002114 -0.998521 0.054326
vn 0.001371 -0.923942 0.382531
vn -0.923914 -0.000780 0.382600
vn -0.923914 0.000780 0.382600
vn -0.998520 0.001203 0.054366
vn -0.382597 -0.000780 0.923915
vn -0.002216 0.001260 0.999997
vn -0.382597 0.000780 0.923915
vn 0.998520 -0.001203 0.054366
vn 0.924917 -0.378574 0.034808
vn 0.924917 -0.378574 -0.034808
vn 0.998520 -0.001203 -0.054366
vn 0.378569 -0.924918 0.034809
vn 0.002114 -0.998521 -0.054326
vn 0.378569 -0.924918 -0.034809
vn 0.382597 -0.000780 0.923915
vn 0.382597 0.000780 0.923915
vn 0.002216 0.001260 0.999997
vn 0.923914 -0.000780 0.382600
vn 0.998520 0.001203 0.054366
vn 0.923914 0.000780 0.382600
vn -0.924917 0.378574 0.034808
vn -0.924917 0.378574 -0.034808
vn -0.998520 0.001203 -0.054366
vn -0.378569 0.924918 0.034809
vn -0.002114 0.998521 0.054326
vn -0.002114 0.998521 -0.054326
vn -0.378569 0.924918 -0.034809
vn -0.001371 0.923942 0.382531
vn 0.001371 0.923942 0.382531
vn 0.002114 0.998521 0.054326
vn -0.001371 0.382530 0.923942
vn 0.001371 0.382530 0.923942
vn 0.378569 0.924918 0.034809
vn 0.378569 0.924918 -0.034809
vn 0.002114 0.998521 -0.054326
vn 0.924917 0.378574 0.034808
vn 0.998520 0.001203 -0.054366
vn 0.924917 0.378574 -0.034808
vn -0.923914 0.000780 -0.382600
vn -0.923914 -0.000780 -0.382600
vn -0.382597 0.000780 -0.923915
vn -0.002216 0.001260 -0.999997
vn -0.002216 -0.001260 -0.999997
vn -0.382597 -0.000780 -0.923915
vn -0.001371 0.382530 -0.923942
vn 0.001371 0.382530 -0.923942
vn 0.002216 0.001260 -0.999997
vn -0.001371 0.923942 -0.382531
vn 0.001371 0.923942 -0.382531
vn 0.382597 0.000780 -0.923915
vn 0.382597 -0.000780 -0.923915
vn 0.002216 -0.001260 -0.999997
vn 0.923914 0.000780 -0.382600
vn 0.923914 -0.000780 -0.382600
vn -0.001371 -0.923942 -0.382531
vn 0.001371 -0.923942 -0.382531
vn -0.001371 -0.382530 -0.923942
vn 0.001371 -0.382530 -0.923942
vn -0.887920 -0.325271 0.325265
vn -0.325268 -0.887917 0.325276
vn -0.325270 -0.325270 0.887918
vn 0.325268 -0.887918 0.325273
vn 0.887920 -0.325271 0.325265
vn 0.325271 -0.325271 0.887918
vn -0.325268 0.887918 0.325273
vn -0.887920 0.325271 0.325265
vn -0.325271 0.325271 0.887918
vn 0.887920 0.325271 0.325265
vn 0.325268 0.887917 0.325276
vn 0.325270 0.325270 0.887918
vn -0.325270 0.325270 -0.887918
vn -0.887920 0.325271 -0.325265
vn -0.325268 0.887917 -0.325276
vn 0.887920 0.325271 -0.325265
vn 0.325271 0.325271 -0.887918
vn 0.325268 0.887918 -0.325273
vn -0.325268 -0.887918 -0.325273
vn -0.887920 -0.325271 -0.325265
vn -0.325271 -0.325271 -0.887918
vn 0.887920 -0.325271 -0.325265
vn 0.325268 -0.887917 -0.325276
vn 0.325270 -0.325270 -0.887918
s 1
g pCube1
usemtl initialShadingGroup
f 2/1/1 1/25/2 37/54/3 42/21/4
s 2
f 1/26/5 6/22/6 38/8/7 37/53/8
s 3
f 4/2/9 3/27/10 11/34/11 10/16/12
s 1
f 3/28/13 2/1/1 12/3/14 11/33/15
s 2
f 6/22/6 5/29/16 15/37/17 14/23/18
s 3
f 5/29/19 4/2/9 16/5/20 15/37/21
s 4
f 8/4/22 7/30/23 43/59/24 48/12/25
s 1
f 7/31/26 12/3/14 44/13/27 43/58/28
s 3
f 10/16/12 9/32/29 23/42/30 22/6/31
s 4
f 9/32/32 8/4/22 24/7/33 23/42/34
s 2
f 14/23/18 13/35/35 27/46/36 26/24/37
s 5
f 13/36/38 18/17/39 28/9/40 27/45/41
f 18/17/39 17/38/42 21/41/43 20/18/44
s 3
f 17/38/45 16/5/20 22/6/31 21/41/46
s 5
f 20/18/44 19/39/47 35/52/48 34/10/49
s 4
f 19/40/50 24/7/33 36/11/51 35/51/52
s 2
f 26/24/37 25/43/53 39/56/54 38/8/7
s 6
f 25/44/55 30/19/56 40/14/57 39/55/58
f 30/19/56 29/47/59 33/50/60 32/20/61
s 5
f 29/47/62 28/9/40 34/10/49 33/50/63
s 6
f 32/20/61 31/48/64 47/62/65 46/15/66
s 4
f 31/49/67 36/11/51 48/12/25 47/61/68
s 1
f 42/21/4 41/57/69 45/60/70 44/13/27
s 6
f 41/57/71 40/14/57 46/15/66 45/60/72
s 3
f 4/2/9 10/16/12 22/6/31 16/5/20
s 5
f 18/17/39 20/18/44 34/10/49 28/9/40
s 6
f 30/19/56 32/20/61 46/15/66 40/14/57
s 1
f 42/21/4 44/13/27 12/3/14 2/1/1
s 4
f 8/4/22 48/12/25 36/11/51 24/7/33
s 2
f 38/8/7 6/22/6 14/23/18 26/24/37
f 5/29/16 6/22/6 1/26/5 49/64/73
s 1
f 1/25/2 2/1/1 3/28/13 49/63/74
s 3
f 3/27/10 4/2/9 5/29/19 49/64/75
s 1
f 11/33/15 12/3/14 7/31/26 50/66/76
s 4
f 7/30/23 8/4/22 9/32/32 50/65/77
s 3
f 9/32/29 10/16/12 11/34/11 50/65/78
s 5
f 17/38/42 18/17/39 13/36/38 51/67/79
s 2
f 13/35/35 14/23/18 15/37/17 51/67/80
s 3
f 15/37/21 16/5/20 17/38/45 51/67/81
s 4
f 23/42/34 24/7/33 19/40/50 52/68/82
s 5
f 19/39/47 20/18/44 21/41/43 52/68/83
s 3
f 21/41/46 22/6/31 23/42/30 52/68/84
s 6
f 29/47/59 30/19/56 25/44/55 53/70/85
s 2
f 25/43/53 26/24/37 27/46/36 53/69/86
s 5
f 27/45/41 28/9/40 29/47/62 53/70/87
s 4
f 35/51/52 36/11/51 31/49/67 54/72/88
s 6
f 31/48/64 32/20/61 33/50/60 54/71/89
s 5
f 33/50/63 34/10/49 35/52/48 54/71/90
s 1
f 41/57/69 42/21/4 37/54/3 55/74/91
s 2
f 37/53/8 38/8/7 39/56/54 55/73/92
s 6
f 39/55/58 40/14/57 41/57/71 55/74/93
s 4
f 47/61/68 48/12/25 43/59/24 56/76/94
s 1
f 43/58/28 44/13/27 45/60/70 56/75/95
s 6
f 45/60/72 46/15/66 47/62/65 56/75/96
