# This file uses centimeters as units for non-parametric coordinates.

mtllib ground_1.mtl
g default
v -17.500000 -0.500000 25.000000
v -5.833333 -0.572566 25.000000
v 5.833334 -0.500000 25.000000
v 17.500000 -0.500000 25.000000
v -17.500000 0.500000 25.000000
v -5.833333 0.427434 25.000000
v 5.833334 0.377918 25.000000
v 17.500000 0.500000 25.000000
v -17.500000 0.500000 8.333334
v -5.833333 0.427434 8.333334
v 5.833334 0.377918 8.333334
v 17.500000 0.500000 8.333334
v -17.500000 0.500000 -8.333332
v -5.833333 0.427434 -8.333332
v 5.833334 0.377918 -8.333332
v 17.500000 0.500000 -8.333332
v -17.500000 0.500000 -25.000000
v -5.833333 0.427434 -25.000000
v 5.833334 0.377918 -25.000000
v 17.500000 0.500000 -25.000000
v -17.500000 -0.500000 -25.000000
v -5.833333 -0.572566 -25.000000
v 5.833334 -0.500000 -25.000000
v 17.500000 -0.500000 -25.000000
v -17.500000 -0.500000 -8.333334
v -5.833333 -0.572566 -8.333334
v 5.833334 -0.500000 -8.333334
v 17.500000 -0.500000 -8.333334
v -17.500000 -0.500000 8.333332
v -5.833333 -0.572566 8.333332
v 5.833334 -0.500000 8.333332
v 17.500000 -0.500000 8.333332
v 6.040074 -0.500000 25.000000
v 6.040074 -0.500000 8.333332
v 6.040074 -0.500000 -8.333334
v 6.040074 -0.500000 -25.000000
v 6.040074 0.500000 -25.000000
v 6.040074 0.500000 -8.333332
v 6.040074 0.500000 8.333334
v 6.040074 0.500000 25.000000
v 5.626594 0.500000 25.000000
v 5.626594 0.500000 8.333334
v 5.626594 0.500000 -8.333332
v 5.626594 0.500000 -25.000000
v 5.626594 -0.500000 -25.000000
v 5.626594 -0.500000 -8.333334
v 5.626594 -0.500000 8.333332
v 5.626594 -0.500000 25.000000
v -5.642916 -0.500000 25.000000
v -5.642916 -0.500000 8.333332
v -5.642916 -0.500000 -8.333334
v -5.642916 -0.500000 -25.000000
v -5.642916 0.500000 -25.000000
v -5.642916 0.500000 -8.333332
v -5.642916 0.500000 8.333334
v -5.642916 0.500000 25.000000
v -6.027185 0.500000 25.000000
v -6.027185 0.500000 8.333334
v -6.027185 0.500000 -8.333332
v -6.027185 0.500000 -25.000000
v -6.027185 -0.500000 -25.000000
v -6.027185 -0.500000 -8.333334
v -6.027185 -0.500000 8.333332
v -6.027185 -0.500000 25.000000
vt 0.375000 0.000000
vt 0.458333 0.000000
vt 0.541667 0.000000
vt 0.625000 0.000000
vt 0.375000 0.250000
vt 0.458333 0.250000
vt 0.541667 0.250000
vt 0.625000 0.250000
vt 0.375000 0.333333
vt 0.458333 0.333333
vt 0.541667 0.333333
vt 0.625000 0.333333
vt 0.375000 0.416667
vt 0.458333 0.416667
vt 0.541667 0.416667
vt 0.625000 0.416667
vt 0.375000 0.500000
vt 0.458333 0.500000
vt 0.541667 0.500000
vt 0.625000 0.500000
vt 0.375000 0.750000
vt 0.458333 0.750000
vt 0.541667 0.750000
vt 0.625000 0.750000
vt 0.375000 0.833333
vt 0.458333 0.833333
vt 0.541667 0.833333
vt 0.625000 0.833333
vt 0.375000 0.916667
vt 0.458333 0.916667
vt 0.541667 0.916667
vt 0.625000 0.916667
vt 0.375000 1.000000
vt 0.458333 1.000000
vt 0.541667 1.000000
vt 0.625000 1.000000
vt 0.875000 0.000000
vt 0.791667 0.000000
vt 0.708333 0.000000
vt 0.875000 0.250000
vt 0.791667 0.250000
vt 0.708333 0.250000
vt 0.125000 0.000000
vt 0.208333 0.000000
vt 0.291667 0.000000
vt 0.125000 0.250000
vt 0.208333 0.250000
vt 0.291667 0.250000
vt 0.543143 0.000000
vt 0.543143 1.000000
vt 0.543143 0.916667
vt 0.543143 0.833333
vt 0.543143 0.750000
vt 0.543143 0.500000
vt 0.543143 0.416667
vt 0.543143 0.333333
vt 0.543143 0.250000
vt 0.540190 0.250000
vt 0.540190 0.333333
vt 0.540190 0.416667
vt 0.540190 0.500000
vt 0.540190 0.750000
vt 0.540190 0.833333
vt 0.540190 0.916667
vt 0.540190 0.000000
vt 0.540190 1.000000
vt 0.459693 0.000000
vt 0.459693 1.000000
vt 0.459693 0.916667
vt 0.459693 0.833333
vt 0.459693 0.750000
vt 0.459693 0.500000
vt 0.459693 0.416667
vt 0.459693 0.333333
vt 0.459693 0.250000
vt 0.456949 0.250000
vt 0.456949 0.333333
vt 0.456949 0.416667
vt 0.456949 0.500000
vt 0.456949 0.750000
vt 0.456949 0.833333
vt 0.456949 0.916667
vt 0.456949 0.000000
vt 0.456949 1.000000
vn 0.000000 0.000000 1.000000
vn 0.000000 0.000000 1.000000
vn 0.000000 0.000000 1.000000
vn 0.000000 0.000000 1.000000
vn -0.000000 0.000000 1.000000
vn -0.000000 0.000000 1.000000
vn 0.000000 0.000000 1.000000
vn 0.000000 0.000000 1.000000
vn -0.000000 0.000000 1.000000
vn -0.000000 0.000000 1.000000
vn 0.000000 0.000000 1.000000
vn 0.000000 0.000000 1.000000
vn 0.000000 1.000000 0.000000
vn 0.006220 0.999981 0.000000
vn 0.006220 0.999981 0.000000
vn 0.000000 1.000000 0.000000
vn -0.006332 0.999980 0.000000
vn 0.010637 0.999943 0.000000
vn 0.010637 0.999943 0.000000
vn -0.006332 0.999980 0.000000
vn -0.010464 0.999945 0.000000
vn 0.000000 1.000000 0.000000
vn 0.000000 1.000000 0.000000
vn -0.010464 0.999945 0.000000
vn 0.006220 0.999981 0.000000
vn 0.000000 1.000000 0.000000
vn 0.010637 0.999943 0.000000
vn -0.006332 0.999980 0.000000
vn 0.000000 1.000000 0.000000
vn -0.010464 0.999945 0.000000
vn 0.006220 0.999981 0.000000
vn 0.000000 1.000000 0.000000
vn 0.010637 0.999943 0.000000
vn -0.006332 0.999980 0.000000
vn 0.000000 1.000000 0.000000
vn -0.010464 0.999945 0.000000
vn 0.000000 0.000000 -1.000000
vn 0.000000 0.000000 -1.000000
vn 0.000000 0.000000 -1.000000
vn 0.000000 0.000000 -1.000000
vn -0.000000 0.000000 -1.000000
vn 0.000000 0.000000 -1.000000
vn 0.000000 0.000000 -1.000000
vn -0.000000 0.000000 -1.000000
vn -0.000000 0.000000 -1.000000
vn 0.000000 0.000000 -1.000000
vn 0.000000 0.000000 -1.000000
vn -0.000000 0.000000 -1.000000
vn 0.000000 -1.000000 0.000000
vn -0.006220 -0.999981 0.000000
vn -0.006220 -0.999981 0.000000
vn 0.000000 -1.000000 0.000000
vn 0.006332 -0.999980 0.000000
vn 0.000000 -1.000000 0.000000
vn 0.000000 -1.000000 0.000000
vn 0.006332 -0.999980 0.000000
vn 0.000000 -1.000000 0.000000
vn 0.000000 -1.000000 0.000000
vn 0.000000 -1.000000 0.000000
vn 0.000000 -1.000000 0.000000
vn -0.006220 -0.999981 0.000000
vn 0.000000 -1.000000 0.000000
vn 0.000000 -1.000000 0.000000
vn 0.006332 -0.999980 0.000000
vn 0.000000 -1.000000 0.000000
vn 0.000000 -1.000000 0.000000
vn -0.006220 -0.999981 0.000000
vn 0.000000 -1.000000 0.000000
vn 0.000000 -1.000000 0.000000
vn 0.006332 -0.999980 0.000000
vn 0.000000 -1.000000 0.000000
vn 0.000000 -1.000000 0.000000
vn 1.000000 0.000000 0.000000
vn 1.000000 0.000000 0.000000
vn 1.000000 0.000000 0.000000
vn 1.000000 0.000000 0.000000
vn 1.000000 0.000000 0.000000
vn 1.000000 0.000000 0.000000
vn 1.000000 0.000000 0.000000
vn 1.000000 0.000000 0.000000
vn -1.000000 0.000000 0.000000
vn -1.000000 -0.000000 0.000000
vn -1.000000 -0.000000 0.000000
vn -1.000000 0.000000 0.000000
vn -1.000000 -0.000000 0.000000
vn -1.000000 -0.000000 0.000000
vn -1.000000 -0.000000 0.000000
vn -1.000000 -0.000000 0.000000
vn 0.000000 -1.000000 0.000000
vn 0.000000 -1.000000 0.000000
vn 0.000000 -1.000000 0.000000
vn 0.000000 -1.000000 0.000000
vn -0.000000 0.000000 -1.000000
vn 0.000000 0.000000 -1.000000
vn -0.000000 1.000000 0.000000
vn 0.000000 1.000000 0.000000
vn 0.000000 1.000000 0.000000
vn 0.000000 1.000000 0.000000
vn -0.000002 0.000000 1.000000
vn -0.000002 0.000000 1.000000
vn -0.000000 -1.000000 0.000000
vn -0.000000 -1.000000 0.000000
vn -0.000000 -1.000000 0.000000
vn -0.000000 -1.000000 0.000000
vn -0.000001 0.000000 -1.000000
vn -0.000001 0.000000 -1.000000
vn 0.000000 1.000000 0.000000
vn 0.000000 1.000000 0.000000
vn 0.000000 1.000000 0.000000
vn 0.000000 1.000000 0.000000
vn -0.000002 0.000000 1.000000
vn -0.000002 0.000000 1.000000
s 1
g pCube1
usemtl initialShadingGroup
f 1/1/1 64/83/2 57/76/3 5/5/4
f 56/75/5 49/67/6 48/65/7 41/58/8
f 40/57/9 33/49/10 4/4/11 8/8/12
s 4
f 5/5/13 57/76/14 58/77/15 9/9/16
f 56/75/17 41/58/18 42/59/19 55/74/20
f 40/57/21 8/8/22 12/12/23 39/56/24
f 9/9/16 58/77/15 59/78/25 13/13/26
f 55/74/20 42/59/19 43/60/27 54/73/28
f 39/56/24 12/12/23 16/16/29 38/55/30
f 13/13/26 59/78/25 60/79/31 17/17/32
f 54/73/28 43/60/27 44/61/33 53/72/34
f 38/55/30 16/16/29 20/20/35 37/54/36
s 7
f 17/17/37 60/79/38 61/80/39 21/21/40
f 53/72/41 44/61/42 45/62/43 52/71/44
f 37/54/45 20/20/46 24/24/47 36/53/48
s 10
f 21/21/49 61/80/50 62/81/51 25/25/52
f 52/71/53 45/62/54 46/63/55 51/70/56
f 36/53/57 24/24/58 28/28/59 35/52/60
f 25/25/52 62/81/51 63/82/61 29/29/62
f 51/70/56 46/63/55 47/64/63 50/69/64
f 35/52/60 28/28/59 32/32/65 34/51/66
f 29/29/62 63/82/61 64/84/67 1/33/68
f 50/69/64 47/64/63 48/66/69 49/68/70
f 34/51/66 32/32/65 4/36/71 33/50/72
s 13
f 28/38/73 24/37/74 20/40/75 16/41/76
f 32/39/77 28/38/73 16/41/76 12/42/78
f 4/4/79 32/39/77 12/42/78 8/8/80
s 14
f 21/43/81 25/44/82 13/47/83 17/46/84
f 25/44/82 29/45/85 9/48/86 13/47/83
f 29/45/85 1/1/87 5/5/88 9/48/86
s 10
f 31/31/89 34/51/66 33/50/72 3/35/90
f 27/27/91 35/52/60 34/51/66 31/31/89
f 23/23/92 36/53/57 35/52/60 27/27/91
s 7
f 19/19/93 37/54/45 36/53/48 23/23/94
s 4
f 15/15/95 38/55/30 37/54/36 19/19/96
f 11/11/97 39/56/24 38/55/30 15/15/95
f 7/7/98 40/57/21 39/56/24 11/11/97
s 1
f 3/3/99 33/49/10 40/57/9 7/7/100
s 4
f 41/58/18 7/7/98 11/11/97 42/59/19
f 43/60/27 42/59/19 11/11/97 15/15/95
f 44/61/33 43/60/27 15/15/95 19/19/96
s 7
f 45/62/43 44/61/42 19/19/93 23/23/94
s 10
f 46/63/55 45/62/54 23/23/92 27/27/91
f 47/64/63 46/63/55 27/27/91 31/31/89
f 48/66/69 47/64/63 31/31/89 3/35/90
s 1
f 41/58/8 48/65/7 3/3/99 7/7/100
s 10
f 30/30/101 50/69/64 49/68/70 2/34/102
f 26/26/103 51/70/56 50/69/64 30/30/101
f 22/22/104 52/71/53 51/70/56 26/26/103
s 7
f 18/18/105 53/72/41 52/71/44 22/22/106
s 4
f 14/14/107 54/73/28 53/72/34 18/18/108
f 10/10/109 55/74/20 54/73/28 14/14/107
f 6/6/110 56/75/17 55/74/20 10/10/109
s 1
f 2/2/111 49/67/6 56/75/5 6/6/112
s 4
f 57/76/14 6/6/110 10/10/109 58/77/15
f 59/78/25 58/77/15 10/10/109 14/14/107
f 60/79/31 59/78/25 14/14/107 18/18/108
s 7
f 61/80/39 60/79/38 18/18/105 22/22/106
s 10
f 62/81/51 61/80/50 22/22/104 26/26/103
f 63/82/61 62/81/51 26/26/103 30/30/101
f 64/84/67 63/82/61 30/30/101 2/34/102
s 1
f 57/76/3 64/83/2 2/2/111 6/6/112
