# This file uses centimeters as units for non-parametric coordinates.

mtllib frame.mtl
g default
v 4.326833 -0.832698 2.761015
v 11.326833 -0.832698 2.761015
v 4.326833 -0.832698 -2.238985
v 11.326833 -0.832698 -2.238985
v 4.646833 -0.832698 2.441015
v 11.006833 -0.832698 2.441015
v 11.006833 -0.832698 -1.918985
v 4.646833 -0.832698 -1.918985
v 11.006833 -0.653919 2.441015
v 4.646833 -0.653919 2.441015
v 11.006833 -0.653919 -1.918985
v 4.646833 -0.653919 -1.918985
v 4.326833 -0.743300 2.761015
v 4.338808 -0.698610 2.749040
v 4.371523 -0.665894 2.716325
v 4.416214 -0.653919 2.671634
v 11.237453 -0.653919 2.671634
v 11.282143 -0.665894 2.716325
v 11.314859 -0.698610 2.749040
v 11.326833 -0.743300 2.761015
v 11.237453 -0.653919 -2.149604
v 11.282143 -0.665894 -2.194295
v 11.314859 -0.698610 -2.227010
v 11.326833 -0.743300 -2.238985
v 4.416214 -0.653919 -2.149604
v 4.371523 -0.665894 -2.194295
v 4.338808 -0.698610 -2.227010
v 4.326833 -0.743300 -2.238985
vt 0.218385 0.356651
vt 0.360787 0.957977
vt 0.131085 0.886719
vt 0.041402 0.538172
vt 0.290750 0.292201
vt 0.830964 0.818472
vt 0.432256 0.411688
vt 0.643488 0.664173
vt 0.366396 0.985338
vt 0.210470 0.349047
vt 0.111052 0.905554
vt 0.363555 0.968273
vt 0.014597 0.531179
vt 0.123081 0.893750
vt 0.667416 0.718495
vt 0.030926 0.535897
vt 0.369658 1.000000
vt 0.206905 0.320278
vt 0.100097 0.915792
vt 0.368303 0.994845
vt 0.000000 0.527611
vt 0.104098 0.912250
vt 0.680771 0.725422
vt 0.005216 0.528770
vt 0.208454 0.322782
vt 0.209140 0.326180
vt 0.366996 0.988697
vt 0.367633 0.991924
vt 0.108664 0.907950
vt 0.106315 0.910239
vt 0.011312 0.530281
vt 0.008126 0.529462
vt 0.677104 0.721337
vt 0.825018 0.840224
vt 0.647704 0.717007
vt 0.209359 0.330059
vt 0.674655 0.719694
vt 0.671295 0.718862
vt 0.027006 0.000000
vt 0.640434 0.708890
vt 0.628663 0.681280
vt 0.415142 0.422619
vt 0.280804 0.313685
vt 0.000000 0.003823
vt 0.202957 0.316426
vn -0.226486 -0.920958 0.317081
vn 0.138589 -0.969496 -0.202162
vn -0.138589 -0.969496 -0.202163
vn 0.226486 -0.920958 0.317081
vn -0.138589 -0.969496 0.202163
vn 0.226486 -0.920958 -0.317081
vn 0.138589 -0.969496 0.202162
vn -0.226486 -0.920958 -0.317081
vn 0.189828 0.941961 -0.276904
vn -0.189828 0.941961 -0.276904
vn -0.189828 0.941961 0.276904
vn 0.189828 0.941961 0.276904
vn -0.041804 0.997383 0.058986
vn -0.276765 0.878704 0.388947
vn 0.276763 0.878705 0.388947
vn 0.041804 0.997383 0.058986
vn -0.485726 0.548042 0.680970
vn 0.485729 0.548040 0.680969
vn -0.577659 0.109606 0.808886
vn 0.577658 0.109603 0.808887
vn 0.041804 0.997383 -0.058986
vn -0.041804 0.997383 -0.058986
vn 0.577658 0.109603 -0.808887
vn -0.577659 0.109606 -0.808886
vn 0.485729 0.548040 -0.680969
vn 0.276763 0.878705 -0.388947
vn -0.485726 0.548042 -0.680970
vn -0.276765 0.878704 -0.388947
s 1
g pPlane1
usemtl initialShadingGroup
f 1/44/1 5/39/2 6/5/3 2/43/4
f 2/43/4 6/5/3 7/7/5 4/42/6
f 4/42/6 7/7/5 8/8/7 3/41/8
f 3/41/8 8/8/7 5/6/2 1/34/1
f 6/2/3 5/40/2 10/35/9 9/12/10
f 7/3/5 6/2/3 9/12/10 11/14/11
f 8/4/7 7/3/5 11/14/11 12/16/12
f 5/1/2 8/4/7 12/16/12 10/10/9
f 16/15/13 15/38/14 18/27/15 17/9/16
f 15/38/14 14/37/17 19/28/18 18/27/15
f 14/37/17 13/33/19 20/20/20 19/28/18
f 16/15/13 17/9/16 9/12/10 10/35/9
f 17/9/16 21/11/21 11/14/11 9/12/10
f 21/11/21 25/13/22 12/16/12 11/14/11
f 25/13/22 16/36/13 10/10/9 12/16/12
f 1/23/1 2/17/4 20/20/20 13/33/19
f 2/17/4 4/19/6 24/22/23 20/20/20
f 4/19/6 3/21/8 28/24/24 24/22/23
f 3/21/8 1/45/1 13/18/19 28/24/24
f 19/28/18 20/20/20 24/22/23 23/30/25
f 17/9/16 18/27/15 22/29/26 21/11/21
f 18/27/15 19/28/18 23/30/25 22/29/26
f 23/30/25 24/22/23 28/24/24 27/32/27
f 21/11/21 22/29/26 26/31/28 25/13/22
f 22/29/26 23/30/25 27/32/27 26/31/28
f 13/18/19 14/25/17 27/32/27 28/24/24
f 14/25/17 15/26/14 26/31/28 27/32/27
f 15/26/14 16/36/13 25/13/22 26/31/28
