# This file uses centimeters as units for non-parametric coordinates.

mtllib wall_2.mtl
g default
v -7.500000 -12.500000 17.233164
v 7.500000 -12.500000 17.233164
v -7.500000 -4.166667 17.181932
v 7.500000 -4.166667 17.181932
v -7.500000 4.166666 17.181932
v 7.500000 4.166666 17.181932
v -7.500000 12.500000 17.233164
v 7.500000 12.500000 17.233164
v -7.500000 12.500000 16.233164
v 7.500000 12.500000 16.233164
v -7.500000 4.166667 16.278848
v 7.500000 4.166667 16.278848
v -7.500000 -4.166666 16.278848
v 7.500000 -4.166666 16.278848
v -7.500000 -12.500000 16.233164
v 7.500000 -12.500000 16.233164
v 7.500000 4.227916 17.233164
v -7.500000 4.227916 17.233164
v -7.500000 4.227917 16.233164
v 7.500000 4.227917 16.233164
v 7.500000 4.104954 17.233164
v -7.500000 4.104954 17.233164
v -7.500000 4.104955 16.233164
v 7.500000 4.104955 16.233164
v 7.500000 -4.102856 17.233164
v -7.500000 -4.102856 17.233164
v -7.500000 -4.102855 16.233164
v 7.500000 -4.102855 16.233164
v 7.500000 -4.229804 17.233164
v -7.500000 -4.229804 17.233164
v -7.500000 -4.229803 16.233164
v 7.500000 -4.229803 16.233164
v 7.500000 12.456801 17.233164
v -7.500000 12.456801 17.233164
v -7.500000 12.456801 16.233164
v 7.500000 12.456801 16.233164
v 7.500000 4.242303 17.233164
v -7.500000 4.242303 17.233164
v -7.500000 4.242304 16.233164
v 7.500000 4.242304 16.233164
v 7.500000 4.092502 17.233164
v -7.500000 4.092502 17.233164
v -7.500000 4.092503 16.233164
v 7.500000 4.092503 16.233164
v 7.500000 4.174902 17.188820
v -7.500000 4.174902 17.188820
v -7.500000 4.174902 16.272705
v 7.500000 4.174902 16.272705
v 7.500000 -4.073840 17.233164
v -7.500000 -4.073840 17.233164
v -7.500000 -4.073839 16.233164
v 7.500000 -4.073839 16.233164
v 7.500000 -4.259113 17.233164
v -7.500000 -4.259113 17.233164
v -7.500000 -4.259112 16.233164
v 7.500000 -4.259112 16.233164
v 7.500000 -4.184094 17.196073
v -7.500000 -4.184094 17.196073
v -7.500000 -4.184093 16.266238
v 7.500000 -4.184093 16.266238
v 7.447646 -4.229804 17.233164
v 7.447646 -4.259113 17.233164
v 7.447646 -12.500000 17.233164
v 7.447646 -12.500000 16.233164
v 7.447646 -4.259112 16.233164
v 7.447646 -4.229803 16.233164
v 7.447646 -4.184093 16.266238
v 7.447646 -4.166666 16.278848
v 7.447646 -4.102855 16.233164
v 7.447646 -4.073839 16.233164
v 7.447646 4.092503 16.233164
v 7.447646 4.104955 16.233164
v 7.447646 4.166667 16.278848
v 7.447646 4.174902 16.272705
v 7.447646 4.227917 16.233164
v 7.447646 4.242304 16.233164
v 7.447646 12.456801 16.233164
v 7.447646 12.500000 16.233164
v 7.447646 12.500000 17.233164
v 7.447646 12.456801 17.233164
v 7.447646 4.242303 17.233164
v 7.447646 4.227916 17.233164
v 7.447646 4.174902 17.188820
v 7.447646 4.166666 17.181932
v 7.447646 4.104954 17.233164
v 7.447646 4.092502 17.233164
v 7.447647 -4.073840 17.233164
v 7.447646 -4.102856 17.233164
v 7.447646 -4.166667 17.181932
v 7.447646 -4.184094 17.196073
v -7.466907 -4.229804 17.233164
v -7.466907 -4.259113 17.233164
v -7.466907 -12.500000 17.233164
v -7.466907 -12.500000 16.233164
v -7.466907 -4.259112 16.233164
v -7.466907 -4.229803 16.233164
v -7.466907 -4.184093 16.266238
v -7.466907 -4.166666 16.278848
v -7.466907 -4.102855 16.233164
v -7.466907 -4.073839 16.233164
v -7.466907 4.092503 16.233164
v -7.466907 4.104955 16.233164
v -7.466907 4.166667 16.278848
v -7.466907 4.174902 16.272705
v -7.466907 4.227917 16.233164
v -7.466907 4.242304 16.233164
v -7.466907 12.456801 16.233164
v -7.466907 12.500000 16.233164
v -7.466907 12.500000 17.233164
v -7.466907 12.456801 17.233164
v -7.466907 4.242303 17.233164
v -7.466907 4.227916 17.233164
v -7.466907 4.174902 17.188820
v -7.466907 4.166666 17.181932
v -7.466907 4.104954 17.233164
v -7.466907 4.092502 17.233164
v -7.466907 -4.073840 17.233164
v -7.466907 -4.102856 17.233164
v -7.466907 -4.166667 17.181932
v -7.466907 -4.184094 17.196073
v -7.500000 -12.457728 17.233164
v -7.500000 -12.457728 16.233164
v -7.466908 -12.457728 16.233164
v 7.447646 -12.457728 16.233164
v 7.500000 -12.457728 16.233164
v 7.500000 -12.457728 17.233164
v 7.447646 -12.457728 17.233164
v -7.466907 -12.457728 17.233164
vt 0.375000 0.000000
vt 0.625000 0.000000
vt 0.375000 0.083333
vt 0.625000 0.083333
vt 0.375000 0.166667
vt 0.625000 0.166667
vt 0.375000 0.250000
vt 0.625000 0.250000
vt 0.375000 0.500000
vt 0.625000 0.500000
vt 0.375000 0.583333
vt 0.625000 0.583333
vt 0.375000 0.666667
vt 0.625000 0.666667
vt 0.375000 0.750000
vt 0.625000 0.750000
vt 0.375000 1.000000
vt 0.625000 1.000000
vt 0.875000 0.000000
vt 0.875000 0.083333
vt 0.875000 0.166667
vt 0.875000 0.250000
vt 0.125000 0.000000
vt 0.125000 0.083333
vt 0.125000 0.166667
vt 0.125000 0.250000
vt 0.625000 0.167279
vt 0.375000 0.167279
vt 0.125000 0.167279
vt 0.375000 0.582721
vt 0.625000 0.582721
vt 0.875000 0.167279
vt 0.625000 0.166050
vt 0.375000 0.166050
vt 0.125000 0.166050
vt 0.375000 0.583950
vt 0.625000 0.583950
vt 0.875000 0.166050
vt 0.625000 0.083971
vt 0.375000 0.083971
vt 0.125000 0.083971
vt 0.375000 0.666028
vt 0.625000 0.666028
vt 0.875000 0.083971
vt 0.625000 0.082702
vt 0.375000 0.082702
vt 0.125000 0.082702
vt 0.375000 0.667298
vt 0.625000 0.667298
vt 0.875000 0.082702
vt 0.625000 0.249568
vt 0.375000 0.249568
vt 0.125000 0.249568
vt 0.375000 0.500432
vt 0.625000 0.500432
vt 0.875000 0.249568
vt 0.625000 0.167423
vt 0.375000 0.167423
vt 0.125000 0.167423
vt 0.375000 0.582577
vt 0.625000 0.582577
vt 0.875000 0.167423
vt 0.625000 0.165925
vt 0.375000 0.165925
vt 0.125000 0.165925
vt 0.375000 0.584075
vt 0.625000 0.584075
vt 0.875000 0.165925
vt 0.625000 0.166749
vt 0.375000 0.166749
vt 0.125000 0.166749
vt 0.375000 0.583251
vt 0.625000 0.583251
vt 0.875000 0.166749
vt 0.625000 0.084262
vt 0.375000 0.084262
vt 0.125000 0.084262
vt 0.375000 0.665738
vt 0.625000 0.665738
vt 0.875000 0.084262
vt 0.625000 0.082409
vt 0.375000 0.082409
vt 0.125000 0.082409
vt 0.375000 0.667591
vt 0.625000 0.667591
vt 0.875000 0.082409
vt 0.625000 0.083159
vt 0.375000 0.083159
vt 0.125000 0.083159
vt 0.375000 0.666841
vt 0.625000 0.666841
vt 0.875000 0.083159
vt 0.624127 0.082702
vt 0.624127 0.082409
vt 0.624127 0.000000
vt 0.624127 1.000000
vt 0.624127 0.750000
vt 0.624127 0.667591
vt 0.624127 0.667298
vt 0.624127 0.666841
vt 0.624127 0.666667
vt 0.624127 0.666028
vt 0.624127 0.665738
vt 0.624127 0.584075
vt 0.624127 0.583950
vt 0.624127 0.583333
vt 0.624127 0.583251
vt 0.624127 0.582721
vt 0.624127 0.582577
vt 0.624127 0.500432
vt 0.624127 0.500000
vt 0.624127 0.250000
vt 0.624127 0.249568
vt 0.624128 0.167423
vt 0.624127 0.167279
vt 0.624127 0.166749
vt 0.624127 0.166667
vt 0.624127 0.166050
vt 0.624127 0.165925
vt 0.624127 0.084262
vt 0.624127 0.083971
vt 0.624127 0.083333
vt 0.624127 0.083159
vt 0.375552 0.082702
vt 0.375552 0.082409
vt 0.375552 0.000000
vt 0.375552 1.000000
vt 0.375552 0.750000
vt 0.375552 0.667591
vt 0.375552 0.667298
vt 0.375552 0.666841
vt 0.375552 0.666667
vt 0.375552 0.666028
vt 0.375552 0.665738
vt 0.375552 0.584075
vt 0.375552 0.583950
vt 0.375552 0.583333
vt 0.375552 0.583251
vt 0.375552 0.582721
vt 0.375552 0.582577
vt 0.375552 0.500432
vt 0.375552 0.500000
vt 0.375552 0.250000
vt 0.375552 0.249568
vt 0.375552 0.167423
vt 0.375552 0.167279
vt 0.375552 0.166749
vt 0.375552 0.166667
vt 0.375552 0.166050
vt 0.375552 0.165925
vt 0.375552 0.084262
vt 0.375552 0.083971
vt 0.375552 0.083333
vt 0.375552 0.083159
vt 0.375000 0.000423
vt 0.125000 0.000423
vt 0.375000 0.749577
vt 0.375552 0.749577
vt 0.624128 0.749577
vt 0.625000 0.749577
vt 0.875000 0.000423
vt 0.625000 0.000423
vt 0.624127 0.000423
vt 0.375552 0.000423
vn 0.000000 0.000000 1.000000
vn 0.000000 0.000000 1.000000
vn 0.000000 0.000000 1.000000
vn 0.000000 0.000000 1.000000
vn 0.000000 -0.415328 0.909672
vn 0.000000 -0.415330 0.909671
vn 0.000000 -0.483203 0.875508
vn 0.000000 -0.483202 0.875509
vn 0.000000 0.535422 0.844585
vn 0.000000 0.535423 0.844584
vn 0.000000 -0.641588 0.767049
vn 0.000000 -0.641590 0.767048
vn 0.000000 1.000000 0.000000
vn 0.000000 1.000000 0.000000
vn 0.000000 1.000000 0.000000
vn 0.000000 1.000000 0.000000
vn 0.000000 -0.597871 -0.801592
vn 0.000000 -0.597876 -0.801589
vn 0.000000 0.492110 -0.870533
vn 0.000000 0.492109 -0.870534
vn 0.000000 -0.441562 -0.897231
vn 0.000000 -0.441562 -0.897231
vn 0.000000 -0.377070 -0.926185
vn 0.000000 -0.377069 -0.926185
vn 0.000000 0.000000 -1.000000
vn 0.000000 0.000000 -1.000000
vn 0.000000 0.000000 -1.000000
vn 0.000000 0.000000 -1.000000
vn 0.000000 -1.000000 0.000000
vn 0.000000 -1.000000 0.000000
vn 0.000000 -1.000000 0.000000
vn 0.000000 -1.000000 0.000000
vn 1.000000 0.000000 -0.000000
vn 1.000000 0.000000 -0.000000
vn 1.000000 0.000000 -0.000000
vn 1.000000 0.000000 -0.000000
vn 1.000000 -0.000004 0.000000
vn 1.000000 -0.000004 0.000000
vn 1.000000 0.000001 -0.000000
vn 1.000000 0.000001 -0.000000
vn 1.000000 -0.000003 0.000000
vn 1.000000 -0.000003 0.000000
vn 1.000000 0.000003 0.000000
vn 1.000000 0.000003 0.000000
vn -1.000000 0.000000 -0.000000
vn -1.000000 0.000000 -0.000000
vn -1.000000 0.000000 -0.000000
vn -1.000000 0.000000 -0.000000
vn -1.000000 -0.000007 0.000000
vn -1.000000 -0.000007 0.000000
vn -1.000000 0.000000 -0.000000
vn -1.000000 0.000000 -0.000000
vn -1.000000 0.000003 0.000000
vn -1.000000 0.000003 0.000000
vn -1.000000 -0.000002 0.000000
vn -1.000000 -0.000002 0.000000
vn 0.000000 -0.549624 0.835412
vn 0.000000 -0.549621 0.835414
vn 0.000000 0.000000 1.000000
vn 0.000000 0.000000 1.000000
vn -1.000000 -0.000002 0.000000
vn -1.000000 -0.000002 0.000000
vn -1.000000 0.000000 0.000000
vn -1.000000 0.000000 0.000000
vn 0.000000 0.000000 -1.000000
vn 0.000000 0.000000 -1.000000
vn 0.000000 -0.506011 -0.862527
vn 0.000000 -0.506006 -0.862530
vn 1.000000 0.000003 0.000000
vn 1.000000 0.000003 0.000000
vn 1.000000 0.000000 0.000000
vn 1.000000 0.000000 0.000000
vn 0.000000 0.568367 0.822775
vn 0.000000 0.568367 0.822775
vn -1.000000 -0.000000 0.000000
vn -1.000000 -0.000000 0.000000
vn 0.000000 0.524465 -0.851432
vn 0.000000 0.524465 -0.851432
vn 1.000000 -0.000001 0.000000
vn 1.000000 -0.000001 0.000000
vn 0.000000 0.000000 1.000000
vn 0.000000 0.000000 1.000000
vn -1.000000 0.000000 -0.000000
vn -1.000000 0.000000 -0.000000
vn 0.000000 0.000000 -1.000000
vn 0.000000 0.000000 -1.000000
vn 1.000000 0.000000 -0.000000
vn 1.000000 0.000000 -0.000000
vn 0.000000 0.630098 0.776515
vn 0.000000 0.443208 0.896419
vn 0.000000 0.443210 0.896418
vn 0.000000 0.630100 0.776514
vn -1.000000 0.000006 0.000000
vn -1.000000 0.000005 0.000000
vn -1.000000 0.000006 0.000000
vn -1.000000 0.000006 0.000000
vn 0.000000 0.586205 -0.810163
vn 0.000000 0.586205 -0.810163
vn 0.000000 0.403408 -0.915020
vn 0.000000 0.403410 -0.915020
vn 1.000000 0.000003 0.000000
vn 1.000000 0.000003 0.000000
vn 1.000000 0.000003 0.000000
vn 1.000000 0.000003 0.000000
vn 0.000000 0.000000 1.000000
vn 0.000000 0.000000 1.000000
vn 0.000000 0.000000 1.000000
vn 0.000000 0.000000 1.000000
vn -1.000000 0.000000 0.000000
vn -1.000000 0.000000 0.000000
vn -1.000000 0.000000 0.000000
vn -1.000000 0.000000 0.000000
vn 0.000000 0.000000 -1.000000
vn 0.000000 0.000000 -1.000000
vn 0.000000 0.000000 -1.000000
vn 0.000000 0.000000 -1.000000
vn 1.000000 0.000000 0.000000
vn 1.000000 0.000000 0.000000
vn 1.000000 0.000000 0.000000
vn 1.000000 0.000000 0.000000
vn 0.000000 0.000000 1.000000
vn 0.000000 0.000000 1.000000
vn -1.000000 0.000000 -0.000000
vn -1.000000 0.000000 -0.000000
vn 0.000000 0.000000 -1.000000
vn 0.000000 0.000000 -1.000000
vn 1.000000 0.000000 -0.000000
vn 1.000000 0.000000 -0.000000
vn 0.000000 0.000000 1.000000
vn 0.000000 0.000000 1.000000
vn -1.000000 0.000000 -0.000000
vn -1.000000 0.000000 -0.000000
vn 0.000000 0.000000 -1.000000
vn 0.000000 0.000000 -1.000000
vn 1.000000 0.000000 -0.000000
vn 1.000000 0.000000 -0.000000
vn 0.000000 0.000000 1.000000
vn 0.000000 0.443208 0.896419
vn 0.000000 0.000000 1.000000
vn 0.000000 0.000000 1.000000
vn 0.000000 -1.000000 0.000000
vn 0.000000 -1.000000 0.000000
vn 0.000000 0.000000 -1.000000
vn 0.000000 0.000000 -1.000000
vn 0.000000 0.403410 -0.915020
vn 0.000000 0.000000 -1.000000
vn 0.000000 0.586205 -0.810163
vn 0.000000 -0.377069 -0.926185
vn 0.000000 -0.441562 -0.897231
vn 0.000000 0.000000 -1.000000
vn 0.000000 0.000000 -1.000000
vn 0.000000 0.524465 -0.851432
vn 0.000000 0.492109 -0.870534
vn 0.000000 -0.597871 -0.801592
vn 0.000000 -0.506006 -0.862530
vn 0.000000 0.000000 -1.000000
vn 0.000000 0.000000 -1.000000
vn 0.000000 0.000000 -1.000000
vn 0.000000 1.000000 0.000000
vn 0.000000 1.000000 0.000000
vn 0.000000 0.000000 1.000000
vn 0.000000 0.000000 1.000000
vn 0.000000 0.000000 1.000000
vn 0.000000 -0.549624 0.835412
vn 0.000000 -0.641590 0.767048
vn 0.000000 0.535422 0.844585
vn 0.000000 0.568367 0.822775
vn 0.000000 0.000000 1.000000
vn 0.000000 0.000000 1.000000
vn 0.000000 -0.483203 0.875508
vn 0.000000 -0.415328 0.909672
vn 0.000000 0.630099 0.776515
vn 0.000000 0.000000 1.000000
vn 0.000000 0.443206 0.896420
vn 0.000000 0.000000 1.000000
vn 0.000000 0.000000 1.000000
vn 0.000000 -1.000000 0.000000
vn 0.000000 -1.000000 0.000000
vn 0.000000 0.000000 -1.000000
vn 0.000000 0.000000 -1.000000
vn 0.000000 0.403411 -0.915019
vn 0.000000 0.000000 -1.000000
vn 0.000000 0.586207 -0.810162
vn 0.000000 -0.377067 -0.926186
vn 0.000000 -0.441561 -0.897231
vn 0.000000 0.000000 -1.000000
vn 0.000000 0.000000 -1.000000
vn 0.000000 0.524467 -0.851431
vn 0.000000 0.492109 -0.870533
vn 0.000000 -0.597876 -0.801588
vn 0.000000 -0.506013 -0.862526
vn 0.000000 0.000000 -1.000000
vn 0.000000 0.000000 -1.000000
vn 0.000000 0.000000 -1.000000
vn 0.000000 1.000000 0.000000
vn 0.000000 1.000000 0.000000
vn 0.000000 0.000000 1.000000
vn 0.000000 0.000000 1.000000
vn 0.000000 0.000000 1.000000
vn 0.000000 -0.549626 0.835411
vn 0.000000 -0.641590 0.767048
vn 0.000000 0.535423 0.844584
vn 0.000000 0.568368 0.822774
vn 0.000000 0.000000 1.000000
vn 0.000000 0.000000 1.000000
vn 0.000000 -0.483201 0.875509
vn 0.000000 -0.415327 0.909672
vn 0.000000 0.630096 0.776517
s 1
g pCube3
usemtl initialShadingGroup
f 63/95/1 2/2/2 126/162/3 127/163/4
f 89/122/5 4/4/6 25/39/7 88/121/8
f 84/117/9 6/6/10 45/69/11 83/116/12
s 4
f 79/112/13 8/8/14 10/10/15 78/111/16
s 5
f 74/107/17 48/73/18 12/12/19 73/106/20
f 69/102/21 28/43/22 14/14/23 68/101/24
f 124/159/25 125/160/26 16/16/27 64/97/28
s 8
f 64/97/29 16/16/30 2/18/31 63/96/32
s 9
f 2/2/33 16/19/34 125/161/35 126/162/36
f 4/4/37 14/20/38 28/44/39 25/39/40
f 6/6/41 12/21/42 48/74/43 45/69/44
s 12
f 15/23/45 1/1/46 121/155/47 122/156/48
f 13/24/49 3/3/50 26/40/51 27/41/52
f 11/25/53 5/5/54 46/70/55 47/71/56
s 1
f 82/115/57 17/27/58 37/57/59 81/114/60
s 12
f 19/29/61 18/28/62 38/58/63 39/59/64
s 5
f 76/109/65 40/61/66 20/31/67 75/108/68
s 9
f 17/27/69 20/32/70 40/62/71 37/57/72
s 1
f 85/118/73 21/33/74 6/6/10 84/117/9
s 12
f 23/35/75 22/34/76 5/5/54 11/25/53
s 5
f 73/106/20 12/12/19 24/37/77 72/105/78
s 9
f 21/33/79 24/38/80 12/21/42 6/6/41
s 1
f 88/121/8 25/39/7 49/75/81 87/120/82
s 12
f 27/41/52 26/40/51 50/76/83 51/77/84
s 5
f 70/103/85 52/79/86 28/43/22 69/102/21
s 9
f 25/39/40 28/44/39 52/80/87 49/75/88
s 1
f 90/123/89 61/93/90 29/45/91 57/87/92
s 12
f 31/47/93 30/46/94 58/88/95 59/89/96
s 5
f 67/100/97 60/91/98 32/49/99 66/99/100
s 9
f 29/45/101 32/50/102 60/92/103 57/87/104
s 1
f 80/113/105 33/51/106 8/8/107 79/112/108
s 12
f 35/53/109 34/52/110 7/7/111 9/26/112
s 5
f 78/111/113 10/10/114 36/55/115 77/110/116
s 9
f 33/51/117 36/56/118 10/22/119 8/8/120
s 1
f 81/114/60 37/57/59 33/51/106 80/113/105
s 12
f 39/59/64 38/58/63 34/52/110 35/53/109
s 5
f 77/110/116 36/55/115 40/61/66 76/109/65
s 9
f 37/57/72 40/62/71 36/56/118 33/51/117
s 1
f 86/119/121 41/63/122 21/33/74 85/118/73
s 12
f 43/65/123 42/64/124 22/34/76 23/35/75
s 5
f 72/105/78 24/37/77 44/67/125 71/104/126
s 9
f 41/63/127 44/68/128 24/38/80 21/33/79
s 1
f 83/116/12 45/69/11 17/27/58 82/115/57
s 12
f 47/71/56 46/70/55 18/28/62 19/29/61
s 5
f 75/108/68 20/31/67 48/73/18 74/107/17
s 9
f 45/69/44 48/74/43 20/32/70 17/27/69
s 1
f 87/120/82 49/75/81 41/63/122 86/119/121
s 12
f 51/77/84 50/76/83 42/64/124 43/65/123
s 5
f 71/104/126 44/67/125 52/79/86 70/103/85
s 9
f 49/75/88 52/80/87 44/68/128 41/63/127
s 1
f 62/94/129 53/81/130 29/45/91 61/93/90
s 12
f 55/83/131 54/82/132 30/46/94 31/47/93
s 5
f 66/99/100 32/49/99 56/85/133 65/98/134
s 9
f 53/81/135 56/86/136 32/50/102 29/45/101
s 1
f 90/123/89 57/87/92 4/4/6 89/122/5
s 12
f 59/89/96 58/88/95 3/3/50 13/24/49
s 5
f 68/101/24 14/14/23 60/91/98 67/100/97
s 9
f 57/87/104 60/92/103 14/20/38 4/4/37
s 1
f 92/125/137 62/94/129 61/93/90 91/124/138
f 93/126/139 63/95/1 127/163/4 128/164/140
s 8
f 94/128/141 64/97/29 63/96/32 93/127/142
s 5
f 123/158/143 124/159/25 64/97/28 94/128/144
f 96/130/145 66/99/100 65/98/134 95/129/146
f 97/131/147 67/100/97 66/99/100 96/130/145
f 98/132/148 68/101/24 67/100/97 97/131/147
f 99/133/149 69/102/21 68/101/24 98/132/148
f 100/134/150 70/103/85 69/102/21 99/133/149
f 101/135/151 71/104/126 70/103/85 100/134/150
f 102/136/152 72/105/78 71/104/126 101/135/151
f 103/137/153 73/106/20 72/105/78 102/136/152
f 104/138/154 74/107/17 73/106/20 103/137/153
f 105/139/155 75/108/68 74/107/17 104/138/154
f 106/140/156 76/109/65 75/108/68 105/139/155
f 107/141/157 77/110/116 76/109/65 106/140/156
f 108/142/158 78/111/113 77/110/116 107/141/157
s 4
f 109/143/159 79/112/13 78/111/16 108/142/160
s 1
f 110/144/161 80/113/105 79/112/108 109/143/162
f 111/145/163 81/114/60 80/113/105 110/144/161
f 112/146/164 82/115/57 81/114/60 111/145/163
f 113/147/165 83/116/12 82/115/57 112/146/164
f 114/148/166 84/117/9 83/116/12 113/147/165
f 115/149/167 85/118/73 84/117/9 114/148/166
f 116/150/168 86/119/121 85/118/73 115/149/167
f 117/151/169 87/120/82 86/119/121 116/150/168
f 118/152/170 88/121/8 87/120/82 117/151/169
f 119/153/171 89/122/5 88/121/8 118/152/170
f 120/154/172 90/123/89 89/122/5 119/153/171
f 120/154/172 91/124/138 61/93/90 90/123/89
f 54/82/173 92/125/137 91/124/138 30/46/174
f 1/1/175 93/126/139 128/164/140 121/155/176
s 8
f 15/15/177 94/128/141 93/127/142 1/17/178
s 5
f 122/157/179 123/158/143 94/128/144 15/15/180
f 31/48/181 96/130/145 95/129/146 55/84/182
f 59/90/183 97/131/147 96/130/145 31/48/181
f 13/13/184 98/132/148 97/131/147 59/90/183
f 27/42/185 99/133/149 98/132/148 13/13/184
f 51/78/186 100/134/150 99/133/149 27/42/185
f 43/66/187 101/135/151 100/134/150 51/78/186
f 23/36/188 102/136/152 101/135/151 43/66/187
f 11/11/189 103/137/153 102/136/152 23/36/188
f 47/72/190 104/138/154 103/137/153 11/11/189
f 19/30/191 105/139/155 104/138/154 47/72/190
f 39/60/192 106/140/156 105/139/155 19/30/191
f 35/54/193 107/141/157 106/140/156 39/60/192
f 9/9/194 108/142/158 107/141/157 35/54/193
s 4
f 7/7/195 109/143/159 108/142/160 9/9/196
s 1
f 34/52/197 110/144/161 109/143/162 7/7/198
f 38/58/199 111/145/163 110/144/161 34/52/197
f 18/28/200 112/146/164 111/145/163 38/58/199
f 46/70/201 113/147/165 112/146/164 18/28/200
f 5/5/202 114/148/166 113/147/165 46/70/201
f 22/34/203 115/149/167 114/148/166 5/5/202
f 42/64/204 116/150/168 115/149/167 22/34/203
f 50/76/205 117/151/169 116/150/168 42/64/204
f 26/40/206 118/152/170 117/151/169 50/76/205
f 3/3/207 119/153/171 118/152/170 26/40/206
f 58/88/208 120/154/172 119/153/171 3/3/207
f 30/46/174 91/124/138 120/154/172 58/88/208
s 12
f 122/156/48 121/155/47 54/82/132 55/83/131
s 5
f 55/84/182 95/129/146 123/158/143 122/157/179
f 95/129/146 65/98/134 124/159/25 123/158/143
f 65/98/134 56/85/133 125/160/26 124/159/25
s 9
f 126/162/36 125/161/35 56/86/136 53/81/135
s 1
f 127/163/4 126/162/3 53/81/130 62/94/129
f 128/164/140 127/163/4 62/94/129 92/125/137
f 121/155/176 128/164/140 92/125/137 54/82/173
