# This file uses centimeters as units for non-parametric coordinates.

mtllib pingfeng_1.mtl
g default
v -5.000000 -2.819979 0.500000
v 5.000000 -2.819979 0.500000
v -5.000000 5.000000 0.500000
v 5.000000 5.000000 0.500000
v -5.000000 5.000000 -0.500000
v 5.000000 5.000000 -0.500000
v -5.000000 -2.819979 -0.500000
v 5.000000 -2.819979 -0.500000
v -4.270000 -2.089979 0.500000
v 4.270000 -2.089979 0.500000
v 4.270000 4.270000 0.500000
v -4.270000 4.270000 0.500000
v -4.270000 4.270000 -0.500000
v 4.270000 4.270000 -0.500000
v 4.270000 -2.089979 -0.500000
v -4.270000 -2.089979 -0.500000
v -4.270000 -2.089979 0.178089
v 4.270000 -2.089979 0.178089
v 4.270000 4.270000 0.178089
v -4.270000 4.270000 0.178089
v -4.270000 4.270000 -0.178089
v 4.270000 4.270000 -0.178089
v 4.270000 -2.089979 -0.178089
v -4.270000 -2.089979 -0.178089
v -4.740000 -2.559979 0.315040
v 4.740000 -2.559979 0.315040
v 4.530000 -2.349979 0.315040
v -4.530000 -2.349979 0.315040
v 4.740000 4.740000 0.315040
v 4.530000 4.530000 0.315040
v -4.740000 4.740000 0.315040
v -4.530000 4.530000 0.315040
v -4.740000 4.740000 -0.309761
v 4.740000 4.740000 -0.309761
v 4.530000 4.530000 -0.309761
v -4.530000 4.530000 -0.309761
v 4.740000 -2.559979 -0.309761
v 4.530000 -2.349979 -0.309761
v -4.740000 -2.559979 -0.309761
v -4.530000 -2.349979 -0.309761
v 4.396845 -2.216824 0.500000
v 4.463423 -2.283402 0.482161
v 4.512160 -2.332139 0.433423
v 4.530000 -2.349979 0.366846
v -4.396845 -2.216824 0.500000
v -4.463423 -2.283402 0.482161
v -4.512160 -2.332139 0.433423
v -4.530000 -2.349979 0.366846
v 4.396845 4.396845 0.500000
v 4.463423 4.463423 0.482161
v 4.512160 4.512160 0.433423
v 4.530000 4.530000 0.366846
v -4.396845 4.396845 0.500000
v -4.463423 4.463423 0.482161
v -4.512160 4.512160 0.433423
v -4.530000 4.530000 0.366846
v 4.396845 4.396845 -0.500000
v 4.463423 4.463423 -0.482161
v 4.512160 4.512160 -0.433423
v 4.530000 4.530000 -0.366846
v -4.396845 4.396845 -0.500000
v -4.463423 4.463423 -0.482161
v -4.512160 4.512160 -0.433423
v -4.530000 4.530000 -0.366846
v 4.396845 -2.216824 -0.500000
v 4.463423 -2.283402 -0.482161
v 4.512160 -2.332139 -0.433423
v 4.530000 -2.349979 -0.366846
v -4.396845 -2.216824 -0.500000
v -4.463423 -2.283402 -0.482161
v -4.512160 -2.332139 -0.433423
v -4.530000 -2.349979 -0.366846
v -4.850965 -2.670944 0.500000
v -4.795483 -2.615462 0.485133
v -4.754867 -2.574846 0.444517
v -4.740000 -2.559979 0.389035
v 4.850965 -2.670944 0.500000
v 4.795483 -2.615462 0.485133
v 4.754867 -2.574846 0.444517
v 4.740000 -2.559979 0.389035
v 4.850965 4.850965 0.500000
v 4.795483 4.795483 0.485133
v 4.754867 4.754867 0.444517
v 4.740000 4.740000 0.389035
v -4.850965 4.850965 0.500000
v -4.795483 4.795483 0.485133
v -4.754867 4.754867 0.444517
v -4.740000 4.740000 0.389035
v -4.850965 4.850965 -0.500000
v -4.795483 4.795483 -0.485133
v -4.754867 4.754867 -0.444517
v -4.740000 4.740000 -0.389035
v 4.850965 4.850965 -0.500000
v 4.795483 4.795483 -0.485133
v 4.754867 4.754867 -0.444517
v 4.740000 4.740000 -0.389035
v 4.850965 -2.670944 -0.500000
v 4.795483 -2.615462 -0.485133
v 4.754867 -2.574846 -0.444517
v 4.740000 -2.559979 -0.389035
v -4.850965 -2.670944 -0.500000
v -4.795483 -2.615462 -0.485133
v -4.754867 -2.574846 -0.444517
v -4.740000 -2.559979 -0.389035
vt 0.188607 1.000000
vt 0.696168 0.922438
vt 0.608286 0.000000
vt 0.667639 0.405806
vt 0.000000 0.090374
vt 0.060588 0.496735
vt 0.645462 0.000000
vt 0.513527 0.070449
vt 0.556105 0.366790
vt 0.155244 0.426359
vt 0.585921 0.829374
vt 0.580601 0.526798
vt 0.625610 0.826307
vt 0.226480 0.886417
vt 0.099857 0.120939
vt 0.526620 0.051041
vt 0.521335 0.057966
vt 0.574899 0.380649
vt 0.567915 0.375517
vt 0.142208 0.445789
vt 0.147468 0.438850
vt 0.092848 0.115792
vt 0.168538 0.577712
vt 0.593528 0.507176
vt 0.588309 0.514189
vt 0.644436 0.840294
vt 0.637447 0.835104
vt 0.213621 0.906065
vt 0.218810 0.899036
vt 0.161520 0.572505
vt 0.082575 0.108103
vt 0.535614 0.038774
vt 0.534265 0.040727
vt 0.587023 0.389756
vt 0.585155 0.388303
vt 0.133225 0.458063
vt 0.134578 0.456113
vt 0.080708 0.106638
vt 0.151235 0.564724
vt 0.602531 0.494555
vt 0.601068 0.496734
vt 0.656754 0.849660
vt 0.654697 0.848037
vt 0.204642 0.918699
vt 0.206105 0.916521
vt 0.149177 0.563089
vt 0.529475 0.047250
vt 0.532104 0.043702
vt 0.089013 0.112999
vt 0.085465 0.110371
vt 0.578726 0.383432
vt 0.582268 0.386048
vt 0.139360 0.449588
vt 0.136737 0.453139
vt 0.596345 0.503337
vt 0.598938 0.499745
vt 0.157681 0.569678
vt 0.154129 0.567018
vt 0.648264 0.843110
vt 0.651807 0.845757
vt 0.210815 0.909913
vt 0.208231 0.913509
vt 0.559536 0.006768
vt 0.057216 0.089183
vt 0.618994 0.413391
vt 0.553130 0.015268
vt 0.109395 0.490105
vt 0.610448 0.407136
vt 0.048627 0.082914
vt 0.115768 0.481591
vt 0.626273 0.461931
vt 0.125433 0.545264
vt 0.688998 0.873733
vt 0.619949 0.470541
vt 0.181019 0.951370
vt 0.680417 0.867403
vt 0.116813 0.538909
vt 0.187304 0.942744
vt 0.546692 0.024014
vt 0.068681 0.097722
vt 0.601751 0.400691
vt 0.544821 0.026900
vt 0.122196 0.472839
vt 0.598999 0.398643
vt 0.065927 0.095661
vt 0.124067 0.469955
vt 0.613597 0.479406
vt 0.137116 0.554064
vt 0.671711 0.860872
vt 0.611623 0.482534
vt 0.193636 0.933868
vt 0.668759 0.858653
vt 0.134160 0.551831
vt 0.195607 0.930741
vt 0.060489 0.091573
vt 0.063484 0.093786
vt 0.550693 0.018509
vt 0.548482 0.021507
vt 0.607183 0.404756
vt 0.604192 0.402554
vt 0.118199 0.478345
vt 0.120406 0.475344
vt 0.128713 0.547688
vt 0.131714 0.549932
vt 0.617543 0.473827
vt 0.615361 0.476866
vt 0.677147 0.864991
vt 0.674153 0.862758
vt 0.189701 0.939451
vt 0.191875 0.936408
vt 0.180415 0.586538
vt 0.585921 0.576659
vt 0.246581 0.576659
vt 0.246581 0.829374
vt 0.111705 0.129695
vt 0.645462 0.252716
vt 0.984802 0.252716
vt 0.984802 0.000000
vn 0.037620 0.050515 0.998015
vn -0.037620 0.050515 0.998015
vn -0.037620 -0.050515 0.998015
vn 0.037620 -0.050515 0.998015
vn -0.612777 0.783605 0.102314
vn 0.612777 0.783605 0.102314
vn 0.612777 0.783605 -0.102314
vn -0.612777 0.783605 -0.102314
vn 0.037620 -0.050515 -0.998015
vn -0.037620 -0.050515 -0.998015
vn -0.037620 0.050515 -0.998015
vn 0.037620 0.050515 -0.998015
vn -0.612777 -0.783605 -0.102314
vn 0.612777 -0.783605 -0.102314
vn 0.612777 -0.783605 0.102314
vn -0.612777 -0.783605 0.102314
vn 0.279511 0.362982 0.888886
vn -0.279511 0.362982 0.888886
vn 0.068715 -0.090489 0.993524
vn -0.068715 -0.090489 0.993524
vn -0.279510 -0.362982 0.888886
vn 0.068715 0.090488 0.993524
vn 0.279510 -0.362982 0.888886
vn -0.068715 0.090488 0.993524
vn 0.294913 -0.382984 -0.875414
vn -0.294913 -0.382984 -0.875414
vn 0.075613 0.099572 -0.992153
vn -0.075613 0.099572 -0.992153
vn -0.294913 0.382984 -0.875414
vn 0.075613 -0.099572 -0.992153
vn 0.294913 0.382984 -0.875414
vn -0.075613 -0.099572 -0.992153
vn 0.457088 0.613764 0.643712
vn -0.457088 0.613764 0.643712
vn -0.457088 -0.613764 0.643711
vn 0.457088 -0.613764 0.643711
vn 0.457088 -0.613764 -0.643711
vn -0.457088 -0.613764 -0.643711
vn -0.457088 0.613764 -0.643712
vn 0.457088 0.613764 -0.643712
vn -0.070443 -0.093431 0.993131
vn 0.070443 -0.093431 0.993131
vn 0.070443 0.093431 0.993131
vn -0.070443 0.093431 0.993131
vn -0.070443 0.093431 -0.993131
vn 0.070443 0.093431 -0.993131
vn 0.070443 -0.093431 -0.993131
vn -0.070443 -0.093431 -0.993131
vn 0.593518 -0.781836 0.190967
vn -0.593518 -0.781836 0.190967
vn 0.593518 0.781837 0.190966
vn -0.593518 0.781837 0.190966
vn 0.594516 0.783139 -0.182333
vn -0.594516 0.783139 -0.182333
vn 0.594516 -0.783138 -0.182334
vn -0.594516 -0.783138 -0.182334
vn 0.504817 -0.665624 0.549640
vn 0.504818 0.665624 0.549639
vn 0.287137 -0.379436 0.879534
vn 0.287137 0.379436 0.879534
vn -0.504817 -0.665624 0.549640
vn -0.287137 -0.379436 0.879534
vn -0.504818 0.665624 0.549639
vn -0.287137 0.379436 0.879534
vn 0.504818 0.665624 -0.549639
vn 0.504817 -0.665624 -0.549640
vn 0.287137 0.379436 -0.879534
vn 0.287137 -0.379436 -0.879534
vn -0.504818 0.665624 -0.549639
vn -0.287137 0.379436 -0.879534
vn -0.504817 -0.665624 -0.549640
vn -0.287137 -0.379436 -0.879534
vn -0.012882 0.016644 0.999779
vn 0.012882 0.016644 0.999779
vn -0.012882 -0.016644 0.999779
vn 0.012882 -0.016644 0.999779
vn -0.012882 -0.016644 -0.999779
vn 0.012882 -0.016644 -0.999779
vn -0.012882 0.016644 -0.999779
vn 0.012882 0.016644 -0.999779
vn 0.601056 0.780380 0.172449
vn -0.601056 0.780380 0.172449
vn -0.601055 -0.780380 0.172450
vn 0.601055 -0.780380 0.172450
vn 0.601697 -0.781220 -0.166298
vn -0.601697 -0.781220 -0.166298
vn -0.601698 0.781220 -0.166297
vn 0.601698 0.781220 -0.166297
vn 0.444802 0.576817 0.685152
vn 0.444801 -0.576813 0.685156
vn 0.181116 0.234359 0.955130
vn 0.181115 -0.234358 0.955130
vn -0.444802 0.576817 0.685152
vn -0.181116 0.234359 0.955130
vn -0.444801 -0.576813 0.685156
vn -0.181115 -0.234358 0.955130
vn 0.444801 -0.576813 -0.685156
vn 0.444802 0.576817 -0.685152
vn 0.181115 -0.234358 -0.955130
vn 0.181116 0.234359 -0.955130
vn -0.444801 -0.576813 -0.685156
vn -0.181115 -0.234358 -0.955130
vn -0.444802 0.576817 -0.685152
vn -0.181116 0.234359 -0.955130
s 1
g pCube1
usemtl initialShadingGroup
f 17/7/1 18/118/2 19/117/3 20/116/4
f 3/67/5 4/65/6 6/71/7 5/77/8
f 21/11/9 22/114/10 23/113/11 24/112/12
f 7/75/13 8/73/14 2/2/15 1/1/16
f 2/63/15 8/3/14 6/4/7 4/65/6
f 7/5/13 1/69/16 3/67/5 5/6/8
f 25/80/17 26/82/18 27/32/19 28/38/20
f 26/82/18 29/84/21 30/34/22 27/32/19
f 29/84/21 31/86/23 32/36/24 30/34/22
f 31/86/23 25/80/17 28/38/20 32/36/24
f 33/88/25 34/90/26 35/40/27 36/46/28
f 34/90/26 37/92/29 38/42/30 35/40/27
f 37/92/29 39/94/31 40/44/32 38/42/30
f 39/94/31 33/88/25 36/46/28 40/44/32
f 9/15/33 10/17/34 18/8/2 17/115/1
f 10/17/34 11/19/35 19/9/3 18/8/2
f 11/19/35 12/21/36 20/10/4 19/9/3
f 12/21/36 9/15/33 17/115/1 20/10/4
f 13/23/37 14/25/38 22/12/10 21/111/9
f 14/25/38 15/27/39 23/13/11 22/12/10
f 15/27/39 16/29/40 24/14/12 23/13/11
f 16/29/40 13/23/37 21/111/9 24/14/12
f 10/17/34 9/15/33 45/22/41 41/16/42
f 11/19/35 10/17/34 41/16/42 49/18/43
f 12/21/36 11/19/35 49/18/43 53/20/44
f 9/15/33 12/21/36 53/20/44 45/22/41
f 14/25/38 13/23/37 61/30/45 57/24/46
f 15/27/39 14/25/38 57/24/46 65/26/47
f 16/29/40 15/27/39 65/26/47 69/28/48
f 13/23/37 16/29/40 69/28/48 61/30/45
f 44/33/49 48/31/50 28/38/20 27/32/19
f 52/35/51 44/33/49 27/32/19 30/34/22
f 56/37/52 52/35/51 30/34/22 32/36/24
f 48/31/50 56/37/52 32/36/24 28/38/20
f 60/41/53 64/39/54 36/46/28 35/40/27
f 68/43/55 60/41/53 35/40/27 38/42/30
f 72/45/56 68/43/55 38/42/30 40/44/32
f 64/39/54 72/45/56 40/44/32 36/46/28
f 43/48/57 44/33/49 52/35/51 51/52/58
f 41/16/42 42/47/59 50/51/60 49/18/43
f 42/47/59 43/48/57 51/52/58 50/51/60
f 44/33/49 43/48/57 47/50/61 48/31/50
f 43/48/57 42/47/59 46/49/62 47/50/61
f 42/47/59 41/16/42 45/22/41 46/49/62
f 51/52/58 52/35/51 56/37/52 55/54/63
f 49/18/43 50/51/60 54/53/64 53/20/44
f 50/51/60 51/52/58 55/54/63 54/53/64
f 48/31/50 47/50/61 55/54/63 56/37/52
f 47/50/61 46/49/62 54/53/64 55/54/63
f 46/49/62 45/22/41 53/20/44 54/53/64
f 59/56/65 60/41/53 68/43/55 67/60/66
f 57/24/46 58/55/67 66/59/68 65/26/47
f 58/55/67 59/56/65 67/60/66 66/59/68
f 60/41/53 59/56/65 63/58/69 64/39/54
f 59/56/65 58/55/67 62/57/70 63/58/69
f 58/55/67 57/24/46 61/30/45 62/57/70
f 67/60/66 68/43/55 72/45/56 71/62/71
f 65/26/47 66/59/68 70/61/72 69/28/48
f 66/59/68 67/60/66 71/62/71 70/61/72
f 64/39/54 63/58/69 71/62/71 72/45/56
f 63/58/69 62/57/70 70/61/72 71/62/71
f 62/57/70 61/30/45 69/28/48 70/61/72
f 1/69/16 2/63/15 77/66/73 73/64/74
f 2/63/15 4/65/6 81/68/75 77/66/73
f 4/65/6 3/67/5 85/70/76 81/68/75
f 3/67/5 1/69/16 73/64/74 85/70/76
f 5/77/8 6/71/7 93/74/77 89/72/78
f 6/71/7 8/73/14 97/76/79 93/74/77
f 8/73/14 7/75/13 101/78/80 97/76/79
f 7/75/13 5/77/8 89/72/78 101/78/80
f 76/85/81 80/79/82 26/82/18 25/80/17
f 80/79/82 84/81/83 29/84/21 26/82/18
f 84/81/83 88/83/84 31/86/23 29/84/21
f 88/83/84 76/85/81 25/80/17 31/86/23
f 92/93/85 96/87/86 34/90/26 33/88/25
f 96/87/86 100/89/87 37/92/29 34/90/26
f 100/89/87 104/91/88 39/94/31 37/92/29
f 104/91/88 92/93/85 33/88/25 39/94/31
f 75/96/89 76/85/81 88/83/84 87/102/90
f 73/64/74 74/95/91 86/101/92 85/70/76
f 74/95/91 75/96/89 87/102/90 86/101/92
f 76/85/81 75/96/89 79/98/93 80/79/82
f 75/96/89 74/95/91 78/97/94 79/98/93
f 74/95/91 73/64/74 77/66/73 78/97/94
f 80/79/82 79/98/93 83/100/95 84/81/83
f 79/98/93 78/97/94 82/99/96 83/100/95
f 78/97/94 77/66/73 81/68/75 82/99/96
f 84/81/83 83/100/95 87/102/90 88/83/84
f 83/100/95 82/99/96 86/101/92 87/102/90
f 82/99/96 81/68/75 85/70/76 86/101/92
f 91/104/97 92/93/85 104/91/88 103/110/98
f 89/72/78 90/103/99 102/109/100 101/78/80
f 90/103/99 91/104/97 103/110/98 102/109/100
f 92/93/85 91/104/97 95/106/101 96/87/86
f 91/104/97 90/103/99 94/105/102 95/106/101
f 90/103/99 89/72/78 93/74/77 94/105/102
f 96/87/86 95/106/101 99/108/103 100/89/87
f 95/106/101 94/105/102 98/107/104 99/108/103
f 94/105/102 93/74/77 97/76/79 98/107/104
f 100/89/87 99/108/103 103/110/98 104/91/88
f 99/108/103 98/107/104 102/109/100 103/110/98
f 98/107/104 97/76/79 101/78/80 102/109/100
